<?xml version="1.0" encoding="utf-8"?>
<!-- Generator: Adobe Illustrator 21.1.0, SVG Export Plug-In . SVG Version: 6.00 Build 0)  -->
<svg version="1.1" xmlns="http://www.w3.org/2000/svg" xmlns:xlink="http://www.w3.org/1999/xlink" x="0px" y="0px"
	 viewBox="0 0 508 508" style="enable-background:new 0 0 508 508;" xml:space="preserve">
<style type="text/css">
	.st0{clip-path:url(#XMLID_3_);fill:#00AC62;}
	.st1{opacity:0.1;clip-path:url(#XMLID_3_);fill:#FFFFFF;}
	.st2{fill:#99AAB5;}
	.st3{fill:#F5F8FA;}
	.st4{fill:#55ACEE;}
	.st5{fill:#292F33;}
</style>
<g id="Layer_1">
	<g>
		<defs>
			<path id="XMLID_1_" d="M419,508H89c-49.2,0-89-39.8-89-89V89C0,39.8,39.8,0,89,0h330c49.2,0,89,39.8,89,89v330
				C508,468.2,468.2,508,419,508z"/>
		</defs>
		<use xlink:href="#XMLID_1_"  style="overflow:visible;fill:#00AC62;"/>
		<clipPath id="XMLID_3_">
			<use xlink:href="#XMLID_1_"  style="overflow:visible;"/>
		</clipPath>
		<rect x="-11" y="239.8" class="st0" width="593" height="274.2"/>
		<rect x="254.1" y="-12" class="st1" width="292.9" height="547"/>
	</g>
	<g>
		<g transform="matrix(1.25 0 0 -1.25 0 45)">
			<g>
				<g>
					<path class="st2" d="M396.4-167.2c0-37.4-86.5-124.5-193.2-124.5S10-215.3,10-167.2c0,37.5,86.5,124.5,193.2,124.5
						S396.4-129.7,396.4-167.2"/>
				</g>
			</g>
			<g>
				<g>
					<path class="st3" d="M382.3-167.2c0-32.9-80.2-109.4-179.2-109.4S24-209.4,24-167.2c0,33,80.2,109.4,179.1,109.4
						S382.3-134.2,382.3-167.2"/>
					<path class="st4" d="M299-167.2c0-52.9-42.9-95.7-95.7-95.7s-95.7,42.9-95.7,95.7s42.9,95.7,95.7,95.7S299-114.3,299-167.2"/>
				</g>
			</g>
			<g>
				<g>
					<path class="st5" d="M256.6-167.2c0-29.4-23.9-53.3-53.3-53.3c-29.4,0-53.3,23.9-53.3,53.3c0,29.4,23.9,53.3,53.3,53.3
						C232.7-113.9,256.6-137.8,256.6-167.2"/>
					<path class="st3" d="M259.9-133.2c0-12.5-10.1-22.6-22.6-22.6c-12.5,0-22.6,10.1-22.6,22.6c0,12.5,10.1,22.6,22.6,22.6
						C249.7-110.6,259.9-120.7,259.9-133.2"/>
				</g>
			</g>
		</g>
		<g>
		</g>
		<g>
		</g>
		<g>
		</g>
		<g>
		</g>
		<g>
		</g>
		<g>
		</g>
		<g>
		</g>
		<g>
		</g>
		<g>
		</g>
		<g>
		</g>
		<g>
		</g>
		<g>
		</g>
		<g>
		</g>
		<g>
		</g>
		<g>
		</g>
	</g>
</g>
<g id="Capa_2">
</g>
</svg>
