<?xml version="1.0" encoding="utf-8"?>
<!-- Generator: Adobe Illustrator 21.1.0, SVG Export Plug-In . SVG Version: 6.00 Build 0)  -->
<svg version="1.1" id="Capa_1" xmlns="http://www.w3.org/2000/svg" xmlns:xlink="http://www.w3.org/1999/xlink" x="0px" y="0px"
	 viewBox="0 0 512 512" style="enable-background:new 0 0 512 512;" xml:space="preserve">
<style type="text/css">
	.st0{fill:#FFD15C;}
	.st1{fill:#FFFFFF;}
	.st2{fill:#FF7058;}
	.st3{fill:#F2F2F2;}
	.st4{fill:#F9EBCF;}
	.st5{fill:#FFCC60;}
	.st6{fill:#78B591;}
	.st7{fill:#619376;}
	.st8{fill:#EF645E;}
	.st9{fill:#C14616;}
	.st10{fill:#5B8C6F;}
	.st11{fill:#FFAB5F;}
	.st12{fill:#A5BC79;}
	.st13{fill:#899B62;}
	.st14{fill:#A03615;}
	.st15{fill:#DDB690;}
	.st16{opacity:0.1;enable-background:new    ;}
</style>
<path class="st0" d="M330.8,53.5H34.4c-14.9,0-26.3,11.4-26.3,26.3v328.8c0,14.9,11.4,26.3,26.3,26.3h297.3
	c14.9,0,26.3-11.4,26.3-26.3V79.8C357.1,65.8,345.7,53.5,330.8,53.5z"/>
<rect x="43.2" y="88.6" class="st1" width="279.7" height="311.3"/>
<path class="st2" d="M236.1,38.6c0-13.2-10.5-24.6-24.6-24.6h-57.9c-13.2,0-24.6,10.5-24.6,24.6C95.8,49.1,82.7,71.9,80.9,98.2
	h203.4C282.6,71.9,268.6,49.1,236.1,38.6z"/>
<g>
	<rect x="159.8" y="328.8" class="st3" width="135.9" height="22.8"/>
	<rect x="69.5" y="309.5" class="st3" width="64" height="64"/>
	<rect x="159.8" y="238.5" class="st3" width="135.9" height="22.8"/>
	<rect x="69.5" y="219.2" class="st3" width="64" height="64"/>
	<rect x="159.8" y="149.1" class="st3" width="135.9" height="22.8"/>
	<rect x="69.5" y="129.8" class="st3" width="64" height="64"/>
</g>
<g>
	<path class="st4" d="M230.9,301.9c-18.5-18.4-18.5-48.4,0-66.8c4.2-4.2,11-4.2,15.3,0l51.9,51.6c4.2,4.2,4.2,11,0,15.2
		C279.5,320.3,249.4,320.3,230.9,301.9z"/>
	<path class="st5" d="M254.5,247.2c-8.6,8.6-8.6,22.5,0,31.1c8.6,8.6,22.6,8.6,31.3,0c0.6-0.6,1.2-1.3,1.8-2l-31-30.9
		C255.9,246,255.2,246.6,254.5,247.2z"/>
	<path class="st6" d="M240.8,301.8c-5.8-5.8-15.4-6.7-26-3.3c3.4-10.6,2.5-20.3-3.3-26.1c-6.5-6.6-17.9-6.8-30-1.8
		c-11.1-7.8-26.5-6.7-36.4,3.3c-9.9,10-11,25.4-3.3,36.6c-5,12.1-4.7,23.5,1.8,30.1c5.8,5.8,15.4,6.7,26,3.3
		c-3.4,10.6-2.5,20.3,3.3,26.1c5.8,5.8,15.4,6.7,26,3.3c-3.4,10.6-2.5,20.3,3.3,26.1c10.8,10.9,34.8,4.4,53.5-14.4
		c18.7-18.8,25.2-42.9,14.3-53.8c-5.8-5.8-15.4-6.7-26-3.3C247.4,317.3,246.6,307.7,240.8,301.8z"/>
	<path class="st7" d="M219.2,354.6c-1.6,0-3.2-0.6-4.4-1.8l-52.1-52.4c-2.4-2.4-2.4-6.3,0-8.7c2.4-2.4,6.3-2.4,8.7,0l52.1,52.4
		c2.4,2.4,2.4,6.3,0,8.7C222.4,354,220.8,354.6,219.2,354.6z"/>
	<path class="st8" d="M266.7,330.8c-10.6,20.7-36,28.8-56.7,18c-4.7-2.4-6.5-8.2-4.1-12.9l29.8-57.9c2.4-4.7,8.2-6.5,12.9-4.1
		C269.2,284.5,277.3,310.1,266.7,330.8z"/>
	<g>
		<path class="st9" d="M223.7,351.3c-1,0-1.9-0.2-2.8-0.7l-0.9-0.4c-3-1.6-4.2-5.3-2.6-8.3c1.6-3,5.3-4.2,8.3-2.6l0.9,0.4
			c3,1.6,4.2,5.3,2.6,8.3C228.1,350.1,225.9,351.3,223.7,351.3z"/>
		<path class="st9" d="M252.6,294c-0.9,0-1.9-0.2-2.8-0.7c-3-1.6-4.2-5.3-2.7-8.3l0.4-0.9c1.6-3,5.3-4.2,8.3-2.7
			c3,1.6,4.2,5.3,2.7,8.3l-0.4,0.9C257,292.7,254.9,294,252.6,294z"/>
		<path class="st9" d="M238.9,336.5c-1,0-1.9-0.2-2.8-0.7l-0.8-0.4c-3-1.6-4.2-5.3-2.6-8.3c1.6-3,5.3-4.2,8.3-2.6l0.8,0.4
			c3,1.6,4.2,5.3,2.6,8.3C243.2,335.3,241.1,336.5,238.9,336.5z"/>
		<path class="st9" d="M250.2,316.5c-1,0-1.9-0.2-2.8-0.7l-0.8-0.4c-3-1.6-4.2-5.3-2.6-8.3c1.6-3,5.3-4.2,8.3-2.6l0.8,0.4
			c3,1.6,4.2,5.3,2.6,8.3C254.6,315.3,252.4,316.5,250.2,316.5z"/>
	</g>
	<ellipse class="st8" cx="409.1" cy="287.2" rx="28.7" ry="28.6"/>
	<path class="st6" d="M469.5,389.8c6-6,6.9-15.9,3.4-26.8c10.9,3.5,20.9,2.6,27-3.4c6.8-6.8,7-18.5,1.9-30.9
		c8-11.5,6.9-27.4-3.4-37.6c-10.3-10.2-26.3-11.4-37.8-3.4c-12.5-5.1-24.3-4.9-31.1,1.9c-6,6-6.9,15.9-3.4,26.8
		c-11-3.5-20.9-2.6-27,3.4c-6,6-6.9,15.9-3.4,26.8c-10.9-3.5-20.9-2.6-27,3.4c-11.2,11.2-4.6,35.9,14.9,55.3
		c19.4,19.3,44.3,26,55.5,14.8c6-6,6.9-15.9,3.4-26.8C453.5,396.6,463.5,395.8,469.5,389.8z"/>
	<path class="st10" d="M421.4,374c-1.7,0-3.3-0.6-4.6-1.9c-2.5-2.5-2.5-6.7,0-9.2l54.1-53.8c2.5-2.5,6.7-2.5,9.2,0
		c2.5,2.5,2.5,6.7,0,9.2L426,372.1C424.8,373.4,423.1,374,421.4,374z"/>
	<ellipse class="st11" cx="207.4" cy="356.9" rx="28.7" ry="28.6"/>
	<path class="st12" d="M394.4,277.5c-6.1-6.1-16.3-7-27.5-3.4c3.6-11.1,2.7-21.2-3.5-27.3c-6.9-6.9-18.9-7.1-31.7-1.9
		c-11.8-8.1-28-7-38.5,3.4c-10.5,10.4-11.6,26.6-3.5,38.3c-5.2,12.7-5,24.6,1.9,31.5c6.2,6.1,16.3,7,27.5,3.4
		c-3.6,11.1-2.7,21.2,3.5,27.3c6.2,6.1,16.3,7,27.5,3.4c-3.6,11.1-2.7,21.2,3.5,27.3c11.4,11.4,36.8,4.6,56.6-15.1
		c19.8-19.7,26.6-44.9,15.2-56.3c-6.2-6.1-16.3-7-27.5-3.4C401.4,293.8,400.5,283.7,394.4,277.5z"/>
	<path class="st8" d="M297.5,196.5c-16.5,16.4-43.3,16.4-59.8,0c-3.8-3.7-3.8-9.8,0-13.5l46.2-46c3.8-3.7,9.8-3.7,13.6,0
		C314,153.4,314,180.1,297.5,196.5z"/>
	<ellipse class="st11" cx="365.9" cy="197.1" rx="20.3" ry="20.2"/>
	<path class="st9" d="M411.7,118.4c2.8,2.8,2.8,7.3,0,10.1l-12.2,12.1c-2.8,2.8-7.4,2.8-10.2,0l-12.2-12.1c-2.8-2.8-2.8-7.3,0-10.1
		l12.2-12.1c2.8-2.8,7.4-2.8,10.2,0L411.7,118.4z"/>
	<path class="st12" d="M199.8,210c2.3,2.3,2.3,5.9,0,8.2l-9.9,9.8c-2.3,2.3-5.9,2.3-8.2,0l-9.9-9.8c-2.3-2.3-2.3-5.9,0-8.2l9.9-9.8
		c2.3-2.3,5.9-2.3,8.2,0L199.8,210z"/>
	<path class="st9" d="M456.5,228.5c2.3,2.3,2.3,5.9,0,8.2l-9.9,9.8c-2.3,2.3-5.9,2.3-8.2,0l-9.9-9.8c-2.3-2.3-2.3-5.9,0-8.2l9.9-9.8
		c2.3-2.3,5.9-2.3,8.2,0L456.5,228.5z"/>
	<path class="st13" d="M371.6,332.4c-1.6,0-3.1-0.6-4.4-1.8l-55.1-54.8c-2.4-2.4-2.4-6.3,0-8.7c2.4-2.4,6.3-2.4,8.7,0l55.1,54.8
		c2.4,2.4,2.4,6.3,0,8.7C374.8,331.8,373.2,332.4,371.6,332.4z"/>
	<path class="st8" d="M184.1,356.9c3.5,3.5,3.5,9.2,0,12.7l-15.3,15.2c-3.5,3.5-9.2,3.5-12.8,0l-15.3-15.2c-3.5-3.5-3.5-9.2,0-12.7
		l15.3-15.2c3.5-3.5,9.2-3.5,12.8,0L184.1,356.9z"/>
	<path class="st9" d="M287.9,365.4c-16.5,16.4-43.3,16.4-59.8,0c-3.8-3.7-3.8-9.8,0-13.5l46.2-46c3.8-3.7,9.8-3.7,13.6,0
		C304.4,322.3,304.4,349,287.9,365.4z"/>
	<g>
		<ellipse class="st11" cx="364.5" cy="333.7" rx="24.7" ry="24.5"/>
		<ellipse class="st11" cx="469.2" cy="365.8" rx="20.3" ry="20.2"/>
	</g>
	<path class="st8" d="M418.3,351c4.2,4.2,4.2,11,0,15.2L400,384.4c-4.2,4.2-11,4.2-15.3,0l-18.3-18.2c-4.2-4.2-4.2-11,0-15.2
		l18.3-18.2c4.2-4.2,11.1-4.2,15.3,0L418.3,351z"/>
	<g>
		<path class="st9" d="M252,203.3c-1.6,0-3.1-0.6-4.4-1.8l-0.7-0.7c-2.4-2.4-2.4-6.3,0-8.7c2.4-2.4,6.3-2.4,8.7,0l0.7,0.7
			c2.4,2.4,2.4,6.3,0,8.7C255.1,202.7,253.5,203.3,252,203.3z"/>
		<path class="st9" d="M297.1,157.7c-1.6,0-3.2-0.6-4.4-1.8c-2.4-2.4-2.4-6.3,0-8.7l0.7-0.7c2.4-2.4,6.3-2.4,8.7,0
			c2.4,2.4,2.4,6.3,0,8.7l-0.7,0.7C300.3,157.1,298.7,157.7,297.1,157.7z"/>
		<path class="st9" d="M271,193.8c-1.6,0-3.1-0.6-4.4-1.8l-0.7-0.7c-2.4-2.4-2.4-6.3,0-8.7c2.4-2.4,6.3-2.4,8.7,0l0.7,0.7
			c2.4,2.4,2.4,6.3,0,8.7C274.2,193.2,272.6,193.8,271,193.8z"/>
		<path class="st9" d="M288,178.3c-1.6,0-3.2-0.6-4.4-1.8l-0.7-0.7c-2.4-2.4-2.4-6.3,0-8.7c2.4-2.4,6.3-2.4,8.7,0l0.7,0.7
			c2.4,2.4,2.4,6.3,0,8.7C291.1,177.7,289.5,178.3,288,178.3z"/>
	</g>
	<g>
		<path class="st14" d="M242.4,372.2c-1.6,0-3.1-0.6-4.4-1.8l-0.7-0.7c-2.4-2.4-2.4-6.3,0-8.7c2.4-2.4,6.3-2.4,8.7,0l0.7,0.7
			c2.4,2.4,2.4,6.3,0,8.7C245.5,371.6,243.9,372.2,242.4,372.2z"/>
		<path class="st14" d="M287.5,326.6c-1.6,0-3.2-0.6-4.4-1.8c-2.4-2.4-2.4-6.3,0-8.7l0.7-0.7c2.4-2.4,6.3-2.4,8.7,0
			c2.4,2.4,2.4,6.3,0,8.7l-0.7,0.7C290.7,326,289.1,326.6,287.5,326.6z"/>
		<path class="st14" d="M261.4,362.7c-1.6,0-3.2-0.6-4.4-1.8l-0.7-0.7c-2.4-2.4-2.4-6.3,0-8.7c2.4-2.4,6.3-2.4,8.7,0l0.7,0.7
			c2.4,2.4,2.4,6.3,0,8.7C264.5,362.1,263,362.7,261.4,362.7z"/>
		<path class="st14" d="M278.4,347.2c-1.6,0-3.1-0.6-4.4-1.8l-0.7-0.7c-2.4-2.4-2.4-6.3,0-8.7c2.4-2.4,6.3-2.4,8.7,0l0.7,0.7
			c2.4,2.4,2.4,6.3,0,8.7C281.5,346.6,279.9,347.2,278.4,347.2z"/>
	</g>
	<path class="st1" d="M304,376.6c-18.5-18.4-18.5-48.4,0-66.8c4.2-4.2,11-4.2,15.3,0l51.9,51.6c4.2,4.2,4.2,11,0,15.2
		C352.7,395.1,322.6,395.1,304,376.6z"/>
	<path class="st5" d="M327.7,322c-8.6,8.6-8.6,22.5,0,31.1c8.6,8.6,22.6,8.6,31.3,0c0.6-0.6,1.2-1.3,1.8-2l-31-30.9
		C329,320.8,328.3,321.3,327.7,322z"/>
	<path class="st4" d="M239.6,472.5c-26.5,0-52.2-9.5-72.2-26.7c-19.9-17.1-33-40.7-37-66.5c-0.4-2.8,0.4-5.6,2.2-7.7
		c1.8-2.1,4.5-3.3,7.3-3.3H493c2.8,0,5.5,1.2,7.3,3.3c1.8,2.1,2.6,4.9,2.2,7.7c-3.9,25.8-17.1,49.4-37,66.5
		c-20,17.2-45.7,26.7-72.2,26.7H239.6z"/>
	<g>
		<path class="st15" d="M224.3,388.9h-92c1,4.2,2.3,8.3,3.8,12.3h88.1c3.4,0,6.2-2.8,6.2-6.2C230.4,391.6,227.7,388.9,224.3,388.9z"
			/>
		<path class="st15" d="M203.2,417.6h-59.3c2.5,4.3,5.3,8.4,8.3,12.3h51c3.4,0,6.2-2.8,6.2-6.2C209.3,420.3,206.6,417.6,203.2,417.6
			z"/>
	</g>
	<path class="st16" d="M164.8,379.3c-0.4-2.8,0.4-5.6,2.2-7.7c1.8-2.1,4.5-3.3,7.3-3.3h-34.5c-2.8,0-5.5,1.2-7.3,3.3
		c-1.8,2.1-2.6,4.9-2.2,7.7c3.9,25.8,17.1,49.4,37,66.5c20,17.2,45.7,26.7,72.2,26.7H274c-26.5,0-52.2-9.5-72.2-26.7
		C181.9,428.7,168.8,405.1,164.8,379.3z"/>
	<path class="st12" d="M421.2,487.1c0,4.5-3.7,8.2-8.2,8.2H219.8c-4.5,0-8.2-3.7-8.2-8.2v-7.3c0-4.5,3.7-8.2,8.2-8.2H413
		c4.5,0,8.2,3.7,8.2,8.2L421.2,487.1L421.2,487.1z"/>
	<path class="st16" d="M246,487.1v-7.3c0-4.5,3.7-8.2,8.2-8.2h-34.3c-4.5,0-8.2,3.7-8.2,8.2v7.3c0,4.5,3.7,8.2,8.2,8.2h34.3
		C249.6,495.2,246,491.6,246,487.1z"/>
	<g>
	</g>
	<g>
	</g>
	<g>
	</g>
	<g>
	</g>
	<g>
	</g>
	<g>
	</g>
	<g>
	</g>
	<g>
	</g>
	<g>
	</g>
	<g>
	</g>
	<g>
	</g>
	<g>
	</g>
	<g>
	</g>
	<g>
	</g>
	<g>
	</g>
</g>
</svg>
