<?xml version="1.0" encoding="iso-8859-1"?>
<!-- Generator: Adobe Illustrator 19.0.0, SVG Export Plug-In . SVG Version: 6.00 Build 0)  -->
<svg version="1.1" id="Layer_1" xmlns="http://www.w3.org/2000/svg" xmlns:xlink="http://www.w3.org/1999/xlink" x="0px" y="0px"
	 viewBox="0 0 512 512" style="enable-background:new 0 0 512 512;" xml:space="preserve">
<path style="fill:#C9D0D7;" d="M172.519,77.913h-66.783c-9.217,0-16.696-7.473-16.696-16.696V16.696C89.041,7.473,96.52,0,105.737,0
	h66.783c9.217,0,16.696,7.473,16.696,16.696v44.522C189.215,70.44,181.736,77.913,172.519,77.913z"/>
<path style="fill:#B8C2C9;" d="M172.519,0h-33.391v77.913h33.391c9.217,0,16.696-7.473,16.696-16.696V16.696
	C189.215,7.473,181.736,0,172.519,0z"/>
<path style="fill:#E6EBF0;" d="M205.911,189.217H72.345c-27.619,0-50.087-22.468-50.087-50.087
	c0-46.032,37.446-83.478,83.478-83.478h66.783c46.032,0,83.478,37.446,83.478,83.478
	C255.998,166.749,233.53,189.217,205.911,189.217z"/>
<path style="fill:#57A4FF;" d="M255.998,211.478L255.998,211.478c0-18.442-14.949-33.391-33.391-33.391H55.65
	c-18.442,0-33.391,14.949-33.391,33.391l0,0c0,18.442,14.949,33.391,33.391,33.391c-18.442,0-33.391,14.949-33.391,33.391l0,0
	c0,14.269,8.953,26.441,21.546,31.222c-13.009,9.055-21.546,24.107-21.546,41.126v111.304c0,27.619,22.468,50.087,50.087,50.087
	h133.565c27.619,0,50.087-22.468,50.087-50.087V350.609c0-17.018-8.537-32.071-21.546-41.126
	c12.593-4.781,21.546-16.953,21.546-31.222l0,0c0-18.442-14.949-33.391-33.391-33.391
	C241.048,244.87,255.998,229.92,255.998,211.478z"/>
<path style="fill:#D1DAE4;" d="M172.519,55.652h-33.391v133.565h66.783c27.619,0,50.087-22.468,50.087-50.087
	C255.998,93.098,218.551,55.652,172.519,55.652z"/>
<path style="fill:#2488FF;" d="M205.911,300.522h-66.783V512h66.783c27.619,0,50.087-22.468,50.087-50.087V350.609
	C255.998,322.99,233.53,300.522,205.911,300.522z"/>
<path style="fill:#ECEFF0;" d="M485.65,250.625c-3.163-3.657-7.771-5.756-12.609-5.756H306.084c-4.837,0-9.445,2.098-12.609,5.756
	c-3.174,3.657-4.609,8.51-3.923,13.299l11.588,81.12l4.771,33.391h167.305l4.771-33.391l11.588-81.12
	C490.259,259.135,488.824,254.283,485.65,250.625z"/>
<path style="fill:#DADFE4;" d="M473.041,244.87h-83.478v133.565h83.652l4.771-33.391l11.588-81.12
	c0.685-4.788-0.75-9.641-3.923-13.299C482.486,246.968,477.878,244.87,473.041,244.87z"/>
<path style="fill:#6BA9E2;" d="M301.14,345.043l4.771,33.391l17.033,119.228c1.184,8.229,8.229,14.337,16.533,14.337h100.174
	c8.304,0,15.348-6.108,16.533-14.337l17.031-119.228l4.771-33.391H301.14z"/>
<g>
	<path style="fill:#2488FF;" d="M389.563,512h50.087c8.304,0,15.348-6.108,16.533-14.337l17.032-119.228l4.771-33.391h-88.422V512z"
		/>
	<path style="fill:#2488FF;" d="M222.606,178.087h-83.478v66.783h83.478c18.442,0,33.391-14.949,33.391-33.391
		S241.048,178.087,222.606,178.087z"/>
	<path style="fill:#2488FF;" d="M222.606,244.87h-83.478v66.783h83.478c18.442,0,33.391-14.949,33.391-33.391
		S241.048,244.87,222.606,244.87z"/>
</g>
<g>
</g>
<g>
</g>
<g>
</g>
<g>
</g>
<g>
</g>
<g>
</g>
<g>
</g>
<g>
</g>
<g>
</g>
<g>
</g>
<g>
</g>
<g>
</g>
<g>
</g>
<g>
</g>
<g>
</g>
</svg>
