<?xml version="1.0" encoding="utf-8"?>
<!-- Generator: Adobe Illustrator 21.1.0, SVG Export Plug-In . SVG Version: 6.00 Build 0)  -->
<svg version="1.1" id="Layer_1" xmlns="http://www.w3.org/2000/svg" xmlns:xlink="http://www.w3.org/1999/xlink" x="0px" y="0px"
	 viewBox="0 0 512 512" style="enable-background:new 0 0 512 512;" xml:space="preserve">
<style type="text/css">
	.st0{fill:#D5B4FF;}
	.st1{fill:#521E53;}
	.st2{fill:#FC6F58;}
	.st3{fill:#49C3E8;}
	.st4{fill:#FFD160;}
	.st5{fill:#FFFFFF;}
	.st6{fill:#E9EDF1;}
</style>
<path class="st0" d="M452,436.6H60c-33,0-60-27-60-60.1V72c0-33,27-60,60-60h391.9c33,0,60.1,27,60.1,60v304.5
	C512,409.6,485,436.6,452,436.6z"/>
<path class="st1" d="M512,106.4V72c0-33-27-60-60-60H60c-33,0-60,27-60,60v34.5H512z"/>
<circle class="st2" cx="58.4" cy="59.2" r="13.4"/>
<circle class="st3" cx="96.6" cy="59.2" r="13.4"/>
<circle class="st4" cx="134.9" cy="59.2" r="13.4"/>
<g>
	<rect x="429.4" y="55.4" class="st5" width="30.4" height="6.8"/>
	<polygon class="st5" points="450.9,79.3 445.7,74.9 459.4,59.2 445.7,43.5 450.9,39 468.4,59.2 	"/>
	<path class="st5" d="M379.3,80.5H208.3c-11.8,0-21.4-9.6-21.4-21.4l0,0c0-11.8,9.6-21.4,21.4-21.4h170.9c11.8,0,21.4,9.6,21.4,21.4
		l0,0C400.6,70.9,391,80.5,379.3,80.5z"/>
</g>
<path d="M212.7,69.4L208,50.2h3.7l1.8,8.7c0.5,2.3,0.9,4.8,1.3,6.7h0.1c0.3-2,0.9-4.3,1.4-6.7l2.1-8.7h3.7l1.9,8.9
	c0.5,2.3,0.9,4.4,1.2,6.5h0.1c0.3-2.1,0.8-4.3,1.3-6.7l2-8.7h3.6l-5.2,19.2h-3.8l-2-9.1c-0.5-2.2-0.8-4-1.1-6.1H220
	c-0.3,2.1-0.7,3.9-1.3,6.1l-2.2,9.1C216.5,69.4,212.7,69.4,212.7,69.4z"/>
<path d="M237.7,69.4L233,50.2h3.7l1.8,8.7c0.5,2.3,0.9,4.8,1.3,6.7h0.1c0.3-2,0.9-4.3,1.4-6.7l2.1-8.7h3.7L249,59
	c0.5,2.3,0.9,4.4,1.2,6.5h0.1c0.3-2.1,0.8-4.3,1.3-6.7l2-8.7h3.6l-5.2,19.2h-3.8l-2-9.1c-0.5-2.2-0.8-4-1.1-6.1H245
	c-0.3,2.1-0.7,3.9-1.3,6.1l-2.2,9.1C241.5,69.4,237.7,69.4,237.7,69.4z"/>
<path d="M262.8,69.4l-4.7-19.2h3.7l1.8,8.7c0.5,2.3,0.9,4.8,1.3,6.7h0.1c0.3-2,0.9-4.3,1.4-6.7l2.1-8.7h3.7L274,59
	c0.5,2.3,0.9,4.4,1.2,6.5h0.1c0.3-2.1,0.8-4.3,1.3-6.7l2-8.7h3.6L277,69.4h-3.8l-2-9.1c-0.5-2.2-0.8-4-1.1-6.1h-0.1
	c-0.3,2.1-0.7,3.9-1.3,6.1l-2.2,9.1C266.6,69.4,262.8,69.4,262.8,69.4z"/>
<path d="M282.1,67.5c0-1.3,0.9-2.3,2.2-2.3c1.3,0,2.2,0.9,2.2,2.3c0,1.3-0.9,2.3-2.2,2.3C283,69.7,282.1,68.8,282.1,67.5z"/>
<path class="st5" d="M368.2,251.9H363c-5.3-22.3-25.3-39-49.2-39c-5.8,0-11.7,1.3-16.6,2.9c-11.7-33.3-43.4-57.3-80.7-57.3
	c-47.3,0-85.6,38.3-85.6,85.6c0,3,0.2,5.9,0.4,8.8c-31.1,5.4-54.9,32.6-54.9,65.1c0,36.4,29.8,66.1,66.1,66.1h225.7
	c36.4,0,66.1-29.8,66.1-66.1C434.4,281.6,404.6,251.9,368.2,251.9z"/>
<path class="st6" d="M297.2,215.8c0,0,9.4,17.4,9.4,51.1c0,0,11.5-21.6,11.5-53.9C318.1,213.1,308.8,211.8,297.2,215.8z"/>
<polygon class="st1" points="189.4,435.2 234.4,389.3 234.4,500.1 276.4,500.1 276.4,389.2 321.5,435.2 351.5,405.9 255.4,308 
	159.4,405.9 "/>
</svg>
