<?xml version="1.0" encoding="utf-8"?>
<!-- Generator: Adobe Illustrator 21.1.0, SVG Export Plug-In . SVG Version: 6.00 Build 0)  -->
<svg version="1.1" xmlns="http://www.w3.org/2000/svg" xmlns:xlink="http://www.w3.org/1999/xlink" x="0px" y="0px"
	 viewBox="0 0 502.2 502.2" style="enable-background:new 0 0 502.2 502.2;" xml:space="preserve">
<style type="text/css">
	.st0{fill:#FFFFFF;}
	.st1{fill:#FFCD00;}
	.st2{fill:#FFDA44;}
	.st3{fill:#D2D2D2;}
	.st4{fill:#B9B9B9;}
</style>
<g id="Capa_2">
	<rect x="372.3" y="189.9" class="st0" width="84.4" height="100"/>
</g>
<g id="Layer_1">
	<g>
		<path class="st1" d="M394.6,296.9V455L75,401.7V261l-17.5,15L35,258.5v177.1l399.6,66.7V296.9c-6.1,2.7-12.9,4.2-20,4.2
			S400.7,299.6,394.6,296.9z"/>
		<path class="st2" d="M75.5,214.5l-0.5-114l319.6-53.3v158.1c6.1-2.7,12.9-4.2,20-4.2s13.9,1.5,20,4.2V0L35,66.7v150.8
			c6.4-1.5,12.6-9,19.5-9S69.1,213,75.5,214.5z"/>
		<path class="st3" d="M5.5,239.9c0,20.5,12.4,38.1,30,45.8c6.1,2.7,12.9,4.2,20,4.2v-100c-7.1,0-13.9,1.5-20,4.2
			C17.9,201.8,5.5,219.5,5.5,239.9z"/>
		<path class="st4" d="M104.5,239.9c0-20.5-12.4-38.1-30-45.8c-6.1-2.7-12.9-4.2-20-4.2v100c7.1,0,13.9-1.5,20-4.2
			C92.2,278,104.5,260.4,104.5,239.9z"/>
		<path class="st4" d="M499.4,239.2c0-40.2-27.9-74-65.4-83c-6.4-1.5-13.1-2.4-20-2.4v53.6c17.6,0,31.8,14.3,31.8,31.8
			c0,17.6-14.3,31.8-31.8,31.8v105.3l20-25.1l47-59.1C492.9,277.1,499.4,258.3,499.4,239.2z"/>
		<path class="st3" d="M415,271c-17.6,0-31.8-14.3-31.8-31.8c0-17.6,14.3-31.8,31.8-31.8v-53.6c-6.9,0-13.6,0.8-20,2.4
			c-37.5,9-65.4,42.8-65.4,83c0,19.1,6.5,37.9,18.4,52.9l47,59.1l20,25.1V271z"/>
	</g>
</g>
</svg>
