<?xml version="1.0" encoding="utf-8"?>
<!-- Generator: Adobe Illustrator 21.1.0, SVG Export Plug-In . SVG Version: 6.00 Build 0)  -->
<svg version="1.1" id="Capa_1" xmlns="http://www.w3.org/2000/svg" xmlns:xlink="http://www.w3.org/1999/xlink" x="0px" y="0px"
	 viewBox="0 0 58 58" style="enable-background:new 0 0 58 58;" xml:space="preserve">
<style type="text/css">
	.st0{fill:#FBCE9D;}
	.st1{fill:#FFFFFF;}
	.st2{fill:#F7B563;}
	.st3{fill:#C7CAC7;}
</style>
<g>
	<path class="st0" d="M32.4,54L32.4,54l-1,3.9c5.2-0.3,10-1.7,14.3-3.9c1.7-0.9,3.3-1.9,4.8-3.1v-6.8C42.7,44.6,36.1,48.4,32.4,54z"
		/>
	<g>
		<path class="st0" d="M57.1,14.2L57.1,14.2c-0.7-1-1.5-2-2.3-3c0,0-0.1-0.1-0.1-0.1c-0.4-0.4-0.8-0.9-1.2-1.3c0,0,0,0,0-0.1
			c-0.9-0.9-1.8-1.7-2.8-2.5c-0.1-0.1-0.1-0.1-0.2-0.2c-0.4-0.3-0.9-0.7-1.4-1C49,6,48.9,6,48.8,5.9c-1-0.7-2.1-1.4-3.3-1.9
			c-0.1-0.1-0.2-0.1-0.3-0.2c-0.5-0.2-0.9-0.5-1.4-0.7C43.7,3.1,43.6,3,43.5,3c-1.2-0.5-2.3-1-3.6-1.3c-0.2,0-0.3-0.1-0.5-0.1
			C39,1.4,38.5,1.2,38,1.1c-0.2,0-0.3-0.1-0.5-0.1c-0.6-0.2-1.3-0.3-1.9-0.4c0,0,0,0-0.1,0c-0.6-0.1-1.2-0.2-1.9-0.3
			c-0.2,0-0.4,0-0.6-0.1c-0.5-0.1-1-0.1-1.5-0.1c-0.2,0-0.4,0-0.6,0c-0.7,0-1.3-0.1-2-0.1c-0.7,0-1.3,0-2,0.1c-0.2,0-0.4,0-0.6,0
			c-0.5,0-1,0.1-1.5,0.1c-0.2,0-0.4,0-0.6,0.1c-0.6,0.1-1.3,0.2-1.9,0.3c0,0,0,0-0.1,0c-0.6,0.1-1.3,0.3-1.9,0.4
			c-0.2,0-0.3,0.1-0.5,0.1c-0.5,0.1-1,0.3-1.4,0.4c-0.2,0-0.3,0.1-0.5,0.1C17,2,15.8,2.5,14.7,3c-0.1,0-0.2,0.1-0.3,0.2
			c-0.5,0.2-1,0.4-1.4,0.7c-0.1,0.1-0.2,0.1-0.3,0.2c-1.1,0.6-2.2,1.2-3.3,2C9.3,6,9.2,6,9.2,6.1c-0.5,0.3-0.9,0.7-1.4,1
			C7.7,7.1,7.6,7.2,7.6,7.2c-1,0.8-2,1.6-2.8,2.5c0,0,0,0,0,0c-0.4,0.4-0.8,0.9-1.2,1.3c0,0-0.1,0.1-0.1,0.1c-0.8,1-1.6,2-2.3,3
			c-0.4,9.1,1.9,19.1,6,25.5c0.4,0.7,0.7,1.4,0.7,2.2c0,0,0,0,0,0v2.1c7.7,0.5,14.3,4.3,18.1,9.9h6.5c3.8-5.6,10.4-9.4,18.1-9.9
			c0-1.2,0-2.1,0-2.1c0,0,0,0,0,0c0-0.8,0.2-1.5,0.7-2.2C55.3,33.3,57.5,23.3,57.1,14.2z"/>
	</g>
	<path class="st1" d="M28,32c-10.2,0-15.2,1.1-23.3,3c0.7,1.7,1.5,3.3,2.5,4.7c0.4,0.7,0.7,1.4,0.7,2.2c0,0,0,0,0,0v2.1
		c7.7,0.5,14.3,4.3,18.1,9.9h6.5c3.8-5.6,10.4-9.4,18.1-9.9V42c0,0,0,0,0,0c0-0.8,0.2-1.5,0.7-2.2c1-1.5,1.9-3.3,2.6-5.2
		C46,32.9,37.3,32,28,32z"/>
	<ellipse class="st2" cx="29.1" cy="21" rx="2.2" ry="2"/>
	<ellipse class="st2" cx="29.1" cy="26" rx="1.1" ry="1"/>
	<ellipse class="st2" cx="29.1" cy="15" rx="1.1" ry="1"/>
	<ellipse class="st2" cx="24.6" cy="26" rx="1.1" ry="1"/>
	<ellipse class="st2" cx="26.8" cy="28" rx="1.1" ry="1"/>
	<ellipse class="st2" cx="33.6" cy="26" rx="1.1" ry="1"/>
	<ellipse class="st2" cx="31.3" cy="28" rx="1.1" ry="1"/>
	<path class="st0" d="M25.8,54c-3.8-5.6-10.4-9.4-18.1-9.9v6.8c1.5,1.2,3.1,2.2,4.8,3.1c4.2,2.2,9.1,3.6,14.3,3.9L25.8,54z"/>
	<g>
		<path class="st3" d="M47.6,36.1c-0.6-0.2-1.2,0-1.5,0.4c-0.3,0.5-0.1,1.1,0.5,1.3L49,39l-2.5,1.1c-0.6,0.2-0.8,0.8-0.5,1.3
			c0.2,0.4,0.6,0.6,1,0.6c0.2,0,0.3,0,0.5-0.1l3.2-1.4c0.1-0.3,0.2-0.5,0.4-0.8c0.3-0.5,0.6-1.1,1-1.6L47.6,36.1z"/>
		<path class="st3" d="M12.1,36.6c-0.3-0.5-1-0.7-1.5-0.4l-4.5,2c0,0,0,0,0,0c0.3,0.6,0.6,1.1,1,1.6c0.2,0.2,0.3,0.5,0.4,0.7
			l3.2,1.4C10.8,42,11,42,11.1,42c0.4,0,0.8-0.2,1-0.6c0.3-0.5,0.1-1.1-0.5-1.3L9.1,39l2.5-1.1C12.2,37.6,12.4,37,12.1,36.6z"/>
	</g>
</g>
</svg>
