<?xml version="1.0" encoding="utf-8"?>
<!-- Generator: Adobe Illustrator 21.1.0, SVG Export Plug-In . SVG Version: 6.00 Build 0)  -->
<svg version="1.1" id="Layer_1" xmlns="http://www.w3.org/2000/svg" xmlns:xlink="http://www.w3.org/1999/xlink" x="0px" y="0px"
	 viewBox="0 0 512 512" style="enable-background:new 0 0 512 512;" xml:space="preserve">
<style type="text/css">
	.st0{fill:#ACABB1;}
	.st1{fill:#D8143A;}
	.st2{fill:#DEDEE0;}
	.st3{fill:#D6D5D8;}
	.st4{fill:#B8002B;}
	.st5{fill:#A1A0A6;}
</style>
<path class="st0" d="M411.6,0c-0.3,0-0.5,0-0.8,0L256,0L102,0c-0.8,0-1.5,0-2.3,0C44.7,0.7,0,45.9,0,100.8v310.3
	C0,466.8,45.2,512,100.8,512H256h155.2c55.6,0,100.8-45.2,100.8-100.8V100.8C512,45.4,467,0.3,411.6,0z"/>
<path class="st1" d="M256,186.2c-12.9,0-23.3,10.4-23.3,23.3v23.3V256c0,12.9,10.4,23.3,23.3,23.3s23.3-10.4,23.3-23.3v-23.3v-23.3
	C279.3,196.6,268.9,186.2,256,186.2z"/>
<path class="st2" d="M407.2,195.3C382.3,133.2,322.9,93.1,256,93.1s-126.3,40.1-151.2,102.2c-3.5,8.7-1.5,18.5,5.1,25.1l52,52
	c4.4,4.4,10.3,6.8,16.5,6.8H256c-12.9,0-23.3-10.4-23.3-23.3v-23.3v-23.3c0-12.9,10.4-23.3,23.3-23.3s23.3,10.4,23.3,23.3v23.3V256
	c0,12.9-10.4,23.3-23.3,23.3h77.6c6.2,0,12.1-2.5,16.5-6.8l52-52C408.7,213.8,410.7,203.9,407.2,195.3z"/>
<path class="st3" d="M104.8,195.3c-3.5,8.7-1.5,18.5,5.1,25.1l52,52c4.4,4.4,10.3,6.8,16.5,6.8H256c-12.9,0-23.3-10.4-23.3-23.3
	v-23.3v-23.3c0-12.9,10.4-23.3,23.3-23.3V93.1C189.1,93.1,129.7,133.2,104.8,195.3z"/>
<path class="st4" d="M232.7,209.5v23.3V256c0,12.9,10.4,23.3,23.3,23.3v-93.1C243.1,186.2,232.7,196.6,232.7,209.5z"/>
<path class="st5" d="M178.4,279.3c-6.2,0-12.1-2.5-16.5-6.8l-52-52c-6.6-6.6-8.6-16.5-5.1-25.1C129.7,133.2,189.1,93.1,256,93.1V0
	L102,0c-0.8,0-1.5,0-2.3,0C44.7,0.7,0,45.9,0,100.8v310.3C0,466.8,45.2,512,100.8,512H256V279.3H178.4z"/>
</svg>
