<?xml version="1.0" encoding="iso-8859-1"?>
<!-- Generator: Adobe Illustrator 19.0.0, SVG Export Plug-In . SVG Version: 6.00 Build 0)  -->
<svg version="1.1" id="Layer_1" xmlns="http://www.w3.org/2000/svg" xmlns:xlink="http://www.w3.org/1999/xlink" x="0px" y="0px"
	 viewBox="0 0 512 512" style="enable-background:new 0 0 512 512;" xml:space="preserve">
<path style="fill:#FC7F59;" d="M203.714,465.16C109.476,376.296-67.724,178.647,27.084,60.547l0,0
	c45.382-46.062,118.96-46.062,164.341,0L256,126.089l64.574-65.542c45.382-46.062,118.96-46.062,164.341,0l0,0
	c94.808,118.101-82.392,315.749-176.631,404.613C294.072,478.563,275.401,486,256,486l0,0
	C236.599,486,217.928,478.563,203.714,465.16z"/>
<path style="fill:#F4684D;" d="M308.286,465.16C294.072,478.563,275.401,486,256,486c-6.287,0-12.493-0.793-18.5-2.305
	c12.53-3.154,24.178-9.475,33.786-18.535c94.239-88.864,271.439-286.512,176.63-404.613l0,0
	c-17.969-18.239-40.361-29.248-63.671-33.043c35.559-5.789,73.259,5.22,100.671,33.043l0,0
	C579.724,178.647,402.524,376.296,308.286,465.16z"/>
<path style="fill:#FC7F59;" d="M300,308.456v15L32.501,323.5C14.58,323.5,0,308.92,0,291s14.58-32.5,32.5-32.5h15
	c4.142,0,7.5,3.358,7.5,7.5s-3.358,7.5-7.5,7.5h-15c-9.649,0-17.5,7.851-17.5,17.5s7.851,17.5,17.5,17.5L300,308.456z"/>
<path style="fill:#DCEAE9;" d="M280,306c0-55.228,44.772-100,100-100s100,44.772,100,100s-44.772,100-100,100S280,361.228,280,306z"
	/>
<path style="fill:#F6F9F8;" d="M450,306c0,50.13-36.888,91.642-85,98.88c-48.112-7.238-85-48.75-85-98.88s36.888-91.642,85-98.88
	C413.112,214.358,450,255.87,450,306z"/>
<path style="fill:#EA6049;" d="M512,315.945c0,4.142-3.358,7.5-7.5,7.5h-70.515l-21.073,31.957c-1.401,2.124-3.765,3.371-6.26,3.371
	c-0.372,0-0.746-0.027-1.12-0.084c-2.89-0.436-5.264-2.511-6.082-5.318l-18.864-64.734l-12.428,30.165
	c-1.157,2.809-3.895,4.643-6.933,4.643L32.501,323.5C14.58,323.5,0,308.92,0,291s14.58-32.5,32.5-32.5h3.38
	c2.704,5.011,5.525,10.013,8.45,15H32.5c-9.649,0-17.5,7.851-17.5,17.5s7.851,17.5,17.5,17.5l323.702-0.054l18.666-45.303
	c1.213-2.946,4.148-4.809,7.336-4.632c3.181,0.171,5.907,2.333,6.799,5.391l20.313,69.707l14.37-21.792
	c1.388-2.104,3.74-3.371,6.261-3.371H504.5C508.642,308.445,512,311.803,512,315.945z"/>
<g>
</g>
<g>
</g>
<g>
</g>
<g>
</g>
<g>
</g>
<g>
</g>
<g>
</g>
<g>
</g>
<g>
</g>
<g>
</g>
<g>
</g>
<g>
</g>
<g>
</g>
<g>
</g>
<g>
</g>
</svg>
