<?xml version="1.0" encoding="utf-8"?>
<!-- Generator: Adobe Illustrator 21.1.0, SVG Export Plug-In . SVG Version: 6.00 Build 0)  -->
<svg version="1.1" id="Layer_1" xmlns="http://www.w3.org/2000/svg" xmlns:xlink="http://www.w3.org/1999/xlink" x="0px" y="0px"
	 viewBox="0 0 164 164" style="enable-background:new 0 0 164 164;" xml:space="preserve">
<style type="text/css">
	.st0{fill:#00851B;}
	.st1{fill:#DDF0CC;}
	.st2{fill:#FF3F38;}
	.st3{fill:#573A28;}
	.st4{fill:#723D1A;}
	.st5{fill:#C8C8C8;}
	.st6{fill:#DEDEDE;}
	.st7{fill:#E9E9E9;}
	.st8{fill:#FFFFFF;}
	.st9{fill:#DF1700;}
</style>
<g>
	<g>
		<g>
			<path class="st0" d="M164,87c0,42.5-34.5,77-77,77c-42.5,0-59-34.5-59-77"/>
		</g>
		<g>
			<path class="st1" d="M151.2,87c0,35.4-28.7,64.1-64.1,64.1S22.9,122.4,22.9,87"/>
		</g>
		<g>
			<path class="st2" d="M142.7,87c0,30.8-24.9,55.7-55.7,55.7S31.4,117.7,31.4,87"/>
		</g>
		<g>
			<path class="st3" d="M100,87c0,3.8-3.1,7-7,7c-3.8,0-7-3.1-7-7"/>
		</g>
		<g>
			<circle class="st4" cx="77" cy="124.9" r="4.6"/>
		</g>
		<g>
			<circle class="st3" cx="93.4" cy="121.4" r="7"/>
		</g>
		<g>
			<circle class="st3" cx="119.9" cy="101.6" r="7"/>
		</g>
	</g>
	<g>
		<g>
			<rect x="17" y="36" class="st5" width="67" height="128"/>
		</g>
		<g>
			<rect x="17" y="36" class="st6" width="33" height="128"/>
		</g>
		<g>
			<rect x="24" y="36" class="st7" width="53" height="111"/>
		</g>
		<g>
			<rect x="24" y="66" class="st2" width="53" height="81"/>
		</g>
		<g>
			<path class="st8" d="M70,117.7c0,1.8-1.5,3.3-3.3,3.3h-0.5c-1.8,0-3.3-1.5-3.3-3.3V77.3c0-1.8,1.5-3.3,3.3-3.3h0.5
				c1.8,0,3.3,1.5,3.3,3.3V117.7z"/>
		</g>
		<g>
			<circle class="st8" cx="65.7" cy="129.1" r="3.7"/>
		</g>
		<g>
			<g>
				<path class="st8" d="M53,66h-8V16.6C45,7.3,52.8,0,62.8,0H94v8H62.8C58,8,53,11,53,16.6V66z"/>
			</g>
			<g>
				<path class="st9" d="M53,66h-8V54h8V66z M53,44h-8V32h8V44z M53,22h-8v-5.4c0-2.8,0.7-5.5,2-7.9l7,3.9c-0.7,1.2-1,2.5-1,4V22z
					 M59.5,8.4l-2.2-7.7C59.1,0.3,60.9,0,62.8,0H70v8h-7.2C61.7,8,60.6,8.1,59.5,8.4z M92,8H80V0h12V8z"/>
			</g>
		</g>
	</g>
</g>
</svg>
