<?xml version="1.0" encoding="iso-8859-1"?>
<!-- Generator: Adobe Illustrator 19.0.0, SVG Export Plug-In . SVG Version: 6.00 Build 0)  -->
<svg version="1.1" id="Layer_1" xmlns="http://www.w3.org/2000/svg" xmlns:xlink="http://www.w3.org/1999/xlink" x="0px" y="0px"
	 viewBox="0 0 512 512" style="enable-background:new 0 0 512 512;" xml:space="preserve">
<circle style="fill:#FC6F58;" cx="256" cy="256" r="256"/>
<path style="fill:#E15050;" d="M507.089,306.078l-138.5-138.5L208.017,311.453l-64.605,85.283l115.231,115.231
	C381.709,510.721,483.969,422.65,507.089,306.078z"/>
<polygon style="fill:#E9EFF4;" points="316.276,115.264 143.412,115.264 143.412,396.736 368.588,396.736 368.588,167.577 "/>
<polygon style="fill:#CFDBE6;" points="368.588,167.577 316.276,115.264 255.426,115.264 255.426,396.736 368.588,396.736 "/>
<polygon style="fill:#B8C9D9;" points="316.276,167.577 368.588,167.577 316.276,115.264 "/>
<path style="fill:#FFFFFF;" d="M305.993,281.295h-99.987v-16.946c0-12.045,7.708-22.74,19.135-26.548l18.36-6.12h24.997l18.36,6.12
	c11.428,3.81,19.135,14.503,19.135,26.548V281.295z"/>
<path style="fill:#D0D1D3;" d="M305.992,264.349c0-12.045-7.708-22.74-19.135-26.548l-18.36-6.12h-13.141v49.614h50.636V264.349z"/>
<polygon style="fill:#F4E3C3;" points="268.498,231.679 256,244.177 243.502,231.679 243.502,219.181 268.498,219.181 "/>
<polygon style="fill:#E5B88F;" points="255.355,219.181 255.355,243.534 256,244.177 268.497,231.679 268.497,219.181 "/>
<path style="fill:#F4E3C3;" d="M231.003,194.184c0-13.805,11.192-24.997,24.997-24.997c13.805,0,24.997,11.192,24.997,24.997
	c0,13.805-11.192,37.495-24.997,37.495C242.195,231.679,231.003,207.991,231.003,194.184z"/>
<path style="fill:#FED8B2;" d="M256,169.188c-0.217,0-0.428,0.028-0.643,0.033v62.424c0.215,0.012,0.428,0.034,0.643,0.034
	c13.805,0,24.997-23.69,24.997-37.495C280.997,180.379,269.805,169.188,256,169.188z"/>
<path style="fill:#464647;" d="M280.997,194.184c0-13.805-11.192-24.997-24.997-24.997c-13.805,0-24.997,11.192-24.997,24.997
	c0,5.51,1.786,12.59,4.805,19.113c-0.709-3.755-0.519-7.594-0.147-10.492c15.867-1.245,31.179-8.668,31.179-8.668
	s1.938,3.562,9.206,6.73c0.515,2.956,1.024,7.766,0.14,12.441C279.207,206.784,280.997,199.697,280.997,194.184z"/>
<path style="fill:#272525;" d="M280.997,194.184c0-13.805-11.192-24.997-24.997-24.997c-0.217,0-0.428,0.028-0.643,0.033v29.403
	c6.825-2.231,11.483-4.484,11.483-4.484s1.938,3.562,9.206,6.73c0.515,2.956,1.024,7.766,0.14,12.441
	C279.207,206.784,280.997,199.697,280.997,194.184z"/>
<polygon style="fill:#84DBFF;" points="250.744,280.857 254.247,248.339 257.751,248.339 261.254,280.857 "/>
<polygon style="fill:#2B9ED8;" points="257.751,248.339 255.355,248.339 255.355,280.857 261.254,280.857 "/>
<path style="fill:#324A5E;" d="M237.783,233.586l-12.641,4.215c-11.428,3.81-19.135,14.503-19.135,26.548v16.946h49.35v-2.107
	L237.783,233.586z"/>
<path style="fill:#2B3B4E;" d="M305.992,264.349c0-12.045-7.708-22.74-19.135-26.548l-12.643-4.215l-18.217,47.271l-0.643-1.669
	v2.107h50.636v-16.946H305.992z"/>
<polygon style="fill:#1D2C3A;" points="274.215,233.586 277.678,248.339 271.108,251.623 277.678,259.179 255.998,280.857 "/>
<polygon style="fill:#2B3B4E;" points="237.783,233.586 234.32,248.339 240.888,251.623 234.32,259.179 255.998,280.857 "/>
<polygon style="fill:#31BAFD;" points="262.897,244.233 258.298,255.073 253.7,255.073 249.101,244.233 "/>
<polygon style="fill:#2B9ED8;" points="262.897,244.233 255.355,244.233 255.355,255.073 258.298,255.073 "/>
<polygon style="fill:#E9EFF4;" points="266.838,248.339 274.215,233.586 268.497,231.679 256,244.177 "/>
<polygon style="fill:#FFFFFF;" points="245.16,248.339 237.783,233.586 243.5,231.679 255.998,244.177 "/>
<g>
	<rect x="213.333" y="314.389" style="fill:#808183;" width="85.333" height="5.172"/>
	<rect x="213.333" y="334.438" style="fill:#808183;" width="85.333" height="5.172"/>
	<rect x="213.333" y="354.469" style="fill:#808183;" width="85.333" height="5.172"/>
</g>
<g>
	<rect x="255.431" y="314.389" style="fill:#59595B;" width="43.236" height="5.172"/>
	<rect x="255.431" y="334.438" style="fill:#59595B;" width="43.236" height="5.172"/>
	<rect x="255.431" y="354.469" style="fill:#59595B;" width="43.236" height="5.172"/>
</g>
<g>
</g>
<g>
</g>
<g>
</g>
<g>
</g>
<g>
</g>
<g>
</g>
<g>
</g>
<g>
</g>
<g>
</g>
<g>
</g>
<g>
</g>
<g>
</g>
<g>
</g>
<g>
</g>
<g>
</g>
</svg>
