<?xml version="1.0" encoding="utf-8"?>
<!-- Generator: Adobe Illustrator 21.1.0, SVG Export Plug-In . SVG Version: 6.00 Build 0)  -->
<svg version="1.1" id="Layer_1" xmlns="http://www.w3.org/2000/svg" xmlns:xlink="http://www.w3.org/1999/xlink" x="0px" y="0px"
	 viewBox="0 0 512 512" style="enable-background:new 0 0 512 512;" xml:space="preserve">
<style type="text/css">
	.st0{fill:#EA8953;}
	.st1{fill:#D37C4B;}
	.st2{fill:#111449;}
	.st3{fill:#27467A;}
	.st4{fill:#D0FBFD;}
	.st5{fill:#FFFFFF;}
	.st6{fill:#FF0F47;}
	.st7{fill:#FF6176;}
	.st8{fill:#FFBE35;}
	.st9{fill:#FFDB8A;}
	.st10{fill:#5195AF;}
	.st11{fill:#88ACB5;}
	.st12{fill:#B7D9DD;}
</style>
<path class="st0" d="M511.5,240.5C503.5,106.3,392.2,0,256,0C114.6,0,0,114.6,0,256c0,118.2,80.1,217.6,188.9,247.1L511.5,240.5z"/>
<path class="st1" d="M512,256c0-5.2-0.2-10.4-0.5-15.5L338.6,67.6L205.9,295L256,345L89.3,403.5l99.5,99.5
	c21.4,5.8,43.9,8.9,67.1,8.9C397.4,512,512,397.4,512,256z"/>
<path class="st2" d="M422.7,403.5c-17-19.2-37.2-35.4-59.8-47.8l-30,47.7l30.6,47.7C385.8,438.7,405.8,422.6,422.7,403.5z"/>
<path class="st3" d="M179.2,403.5l-30-47.8c-22.6,12.4-42.8,28.7-59.8,47.8c17,19.2,37.2,35.4,59.8,47.8L179.2,403.5z"/>
<path class="st4" d="M290.3,331l-87.7,33L256,478.6c38.7,0,75.1-9.9,106.9-27.3v-95.6C340.7,343.5,316.2,335,290.3,331z"/>
<path class="st5" d="M221.7,331c-25.9,4-50.4,12.5-72.6,24.7v95.6c31.7,17.4,68.1,27.3,106.9,27.3V364L221.7,331z"/>
<path class="st6" d="M272.7,352.8l17.6-21.8c-11.2-1.7-22.6-2.7-34.3-2.7l-8.9,111.3l8.9,39l31.2-31.2L272.7,352.8z"/>
<path class="st7" d="M221.7,331l17.6,21.8l-14.5,94.6l31.2,31.2V328.3C244.3,328.3,232.9,329.3,221.7,331z"/>
<path class="st8" d="M256,33.4l-13.7,252.3l65.3-30.5c38.7-19.1,65.3-58.9,65.3-104.9C372.9,85.7,320.5,33.4,256,33.4z"/>
<path class="st9" d="M139.1,150.3c0,46,26.6,85.8,65.3,104.9l51.6,30.5V33.4C191.5,33.4,139.1,85.7,139.1,150.3z"/>
<polygon class="st5" points="306.2,164.5 290.5,148.8 256,183.3 221.3,148.6 205.6,164.3 244.9,203.6 244.9,267.1 267.1,267.1 
	267.1,203.6 "/>
<polygon class="st10" points="309.5,272.7 244.9,261.6 256,295 306.1,295 "/>
<g>
	<polygon class="st11" points="202.5,272.7 205.9,295 256,295 256,272.7 	"/>
	<polygon class="st11" points="316.2,250.4 256,250.4 244.9,261.6 256,272.7 316.2,272.7 	"/>
</g>
<rect x="195.8" y="250.4" class="st12" width="60.2" height="22.3"/>
<path class="st3" d="M116.9,428.5C116.9,428.1,116.9,428.9,116.9,428.5L116.9,428.5z"/>
</svg>
