<?xml version="1.0" encoding="iso-8859-1"?>
<!-- Generator: Adobe Illustrator 19.0.0, SVG Export Plug-In . SVG Version: 6.00 Build 0)  -->
<svg version="1.1" id="Layer_1" xmlns="http://www.w3.org/2000/svg" xmlns:xlink="http://www.w3.org/1999/xlink" x="0px" y="0px"
	 viewBox="0 0 451.296 451.296" style="enable-background:new 0 0 451.296 451.296;" xml:space="preserve">
<circle style="fill:#EA8953;" cx="225.638" cy="225.639" r="225.638"/>
<path style="opacity:0.1;enable-background:new    ;" d="M451.296,225.638c0-5.674-0.28-11.28-0.692-16.849L340.626,98.835
	l-0.893-0.893l-0.094-0.094c-1.128-0.94-2.586-1.504-4.184-1.504c-3.761,0-6.817,3.056-6.817,6.816v38.597L285.81,98.882
	l-1.034-1.034c-1.175-0.94-2.633-1.504-4.231-1.504c-3.761,0-6.817,3.056-6.817,6.816v38.55l-43.862-43.862
	c-1.175-0.94-2.633-1.504-4.231-1.504c-3.761,0-6.817,3.056-6.817,6.816v38.456l-43.251-43.252
	c-1.269-1.269-2.962-2.021-4.842-2.021c-3.761,0-6.77,3.056-6.77,6.816v38.503l-43.251-43.252c-1.222-1.269-2.915-2.068-4.842-2.068
	c-3.761,0-6.817,3.056-6.817,6.816v62.15c-7.428,2.727-12.693,9.826-12.693,18.194s5.265,15.514,12.693,18.241V348.14
	c0,1.833,0.752,3.479,1.927,4.701l0.094,0.094l97.664,97.665c5.588,0.414,11.214,0.695,16.908,0.695
	C350.266,451.296,451.296,350.266,451.296,225.638z"/>
<g>
	<path style="fill:#EBF0F3;" d="M115.843,96.356c-3.757,0-6.803,3.045-6.803,6.802v244.961c0,3.757,3.045,6.803,6.803,6.803
		c3.757,0,6.802-3.046,6.802-6.803V103.158C122.645,99.401,119.6,96.356,115.843,96.356z"/>
	<path style="fill:#EBF0F3;" d="M170.741,96.356c-3.757,0-6.803,3.045-6.803,6.802v244.961c0,3.757,3.046,6.803,6.803,6.803
		c3.757,0,6.803-3.046,6.803-6.803V103.158C177.543,99.401,174.497,96.356,170.741,96.356z"/>
	<path style="fill:#EBF0F3;" d="M225.638,96.356c-3.757,0-6.803,3.045-6.803,6.802v244.961c0,3.757,3.046,6.803,6.803,6.803
		c3.757,0,6.802-3.046,6.802-6.803V103.158C232.441,99.401,229.395,96.356,225.638,96.356z"/>
	<path style="fill:#EBF0F3;" d="M280.536,96.356c-3.757,0-6.803,3.045-6.803,6.802v244.961c0,3.757,3.046,6.803,6.803,6.803
		c3.757,0,6.802-3.046,6.802-6.803V103.158C287.338,99.401,284.293,96.356,280.536,96.356z"/>
	<path style="fill:#EBF0F3;" d="M335.434,96.356c-3.757,0-6.802,3.045-6.802,6.802v244.961c0,3.757,3.045,6.803,6.802,6.803
		c3.757,0,6.803-3.046,6.803-6.803V103.158C342.236,99.401,339.191,96.356,335.434,96.356z"/>
</g>
<circle style="fill:#FCD462;" cx="115.845" cy="183.506" r="19.487"/>
<circle style="fill:#DC8744;" cx="115.845" cy="183.506" r="9.298"/>
<circle style="fill:#27A2DB;" cx="170.752" cy="293.683" r="19.487"/>
<circle style="fill:#1C75A1;" cx="170.752" cy="293.683" r="9.298"/>
<circle style="fill:#44C4A1;" cx="225.638" cy="213.166" r="19.487"/>
<circle style="fill:#31978C;" cx="225.638" cy="213.166" r="9.298"/>
<circle style="fill:#FCD462;" cx="280.535" cy="306.601" r="19.487"/>
<circle style="fill:#DC8744;" cx="280.535" cy="306.601" r="9.298"/>
<circle style="fill:#64798A;" cx="335.411" cy="160.871" r="19.487"/>
<circle style="fill:#2F4859;" cx="335.411" cy="160.871" r="9.298"/>
<g>
</g>
<g>
</g>
<g>
</g>
<g>
</g>
<g>
</g>
<g>
</g>
<g>
</g>
<g>
</g>
<g>
</g>
<g>
</g>
<g>
</g>
<g>
</g>
<g>
</g>
<g>
</g>
<g>
</g>
</svg>
