<?xml version="1.0" encoding="utf-8"?>
<!-- Generator: Adobe Illustrator 21.1.0, SVG Export Plug-In . SVG Version: 6.00 Build 0)  -->
<svg version="1.1" id="Layer_1" xmlns="http://www.w3.org/2000/svg" xmlns:xlink="http://www.w3.org/1999/xlink" x="0px" y="0px"
	 viewBox="0 0 512 512" style="enable-background:new 0 0 512 512;" xml:space="preserve">
<style type="text/css">
	.st0{fill:#FC6F58;}
	.st1{fill:#E15050;}
	.st2{fill:#7C2C2C;}
	.st3{fill:#EFEFF0;}
	.st4{fill:#FFFFFF;}
	.st5{fill:#00CC96;}
	.st6{fill:#E84F4F;}
	.st7{fill:#898989;}
</style>
<circle class="st0" cx="256" cy="255.9" r="255.9"/>
<path class="st1" d="M511.5,241.5L392.1,121.9L121.4,391.8l119.8,119.8c4.9,0.2,9.9,0.4,14.8,0.4c141.4,0,255.9-114.5,255.9-255.9
	c0-4.9-0.2-9.7-0.4-14.4V241.5z"/>
<path class="st2" d="M129,117.5h254.2c6.3,0,11.4,5.1,11.4,11.4v254.2c0,6.3-5.1,11.4-11.4,11.4H129c-6.3,0-11.4-5.1-11.4-11.4
	V128.9C117.6,122.6,122.7,117.5,129,117.5z"/>
<rect x="124.6" y="158.3" class="st3" width="262.9" height="229.1"/>
<g>
	<path class="st4" d="M213.3,130.6h155.3c1.3,0,2.3,1,2.3,2.3v6.6c0,1.3-1,2.3-2.3,2.3H213.3c-1.3,0-2.3-1-2.3-2.3v-6.6
		C211,131.6,212,130.6,213.3,130.6z"/>
	<path class="st4" d="M144,128.1c4.4,0,8.2,3.6,8.2,8.2c0,4.4-3.6,8.2-8.2,8.2c-4.4,0-8.2-3.6-8.2-8.2
		C135.8,131.9,139.4,128.1,144,128.1z M186.5,128.1c4.4,0,8.2,3.6,8.2,8.2c0,4.4-3.6,8.2-8.2,8.2c-4.4,0-8.2-3.6-8.2-8.2
		C178.2,131.9,181.8,128.1,186.5,128.1z M165.1,128.1c4.4,0,8.2,3.6,8.2,8.2c0,4.4-3.6,8.2-8.2,8.2c-4.4,0-8.2-3.6-8.2-8.2
		C156.9,131.9,160.5,128.1,165.1,128.1z"/>
</g>
<rect x="141.9" y="177.1" class="st5" width="228.4" height="67.4"/>
<rect x="296.8" y="265.2" class="st6" width="73.3" height="58.1"/>
<path class="st7" d="M141.9,265.2h136.9v10.6H141.9V265.2L141.9,265.2z M141.9,348.4h136.9V359H141.9V348.4L141.9,348.4z
	 M141.9,327.5h136.9v10.6H141.9V327.5L141.9,327.5z M141.9,306.6h136.9v10.6H141.9V306.6L141.9,306.6z M141.9,285.7h136.9v10.6
	H141.9V285.7L141.9,285.7z"/>
</svg>
