<svg id="Capa_1" data-name="Capa 1" xmlns="http://www.w3.org/2000/svg" xmlns:xlink="http://www.w3.org/1999/xlink" viewBox="0 0 298 504.36173"><defs><style>.cls-1{fill:none;}.cls-2{fill:#fff;}.cls-3{clip-path:url(#clip-path);}.cls-4{fill:#e6e6e6;opacity:0.4;isolation:isolate;}.cls-5{fill:#f1b501;}.cls-6{fill:#444;}.cls-7{fill:#555;}.cls-8{clip-path:url(#clip-path-2);}.cls-9{fill:#659c35;}.cls-10{fill:#88c057;}.cls-11{fill:#e22f37;}.cls-12{fill:#994530;}.cls-13{fill:#f9da49;}.cls-14{fill:#f9ea80;}</style><clipPath id="clip-path"><rect class="cls-1" x="-34.59162" y="-10" width="348.71982" height="523.07973"/></clipPath><clipPath id="clip-path-2"><rect class="cls-1" x="-259.5159" y="329.13439" width="574.5159" height="175.22735"/></clipPath></defs><title>smallDevice</title><image width="317" height="522" transform="translate(-13) scale(1 0.96621)" xlink:href="../../../../../../Users/MrSonni/Desktop/fondo-bienvenidos.jpg"/><g id="Capa_2" data-name="Capa 2"><rect id="_Rectángulo_3" data-name=" Rectángulo 3" class="cls-2" x="-34.59162" y="-10" width="348.71982" height="523.07973"/><g class="cls-3"><polygon class="cls-4" points="324.59 -24.821 -41.566 526.157 345.513 520.054 324.59 -24.821"/></g><path class="cls-5" d="M60.23489,231.84179v4.04357H42.62735v12.82156H57.67568v4.04357H42.62735v15.76476H37.63706V231.84179Z"/><path class="cls-5" d="M64.35508,268.51526v-25.925h2.61029a1.4416,1.4416,0,0,1,1.02377.2818,1.72787,1.72787,0,0,1,.38354.97226l.30734,4.04357a11.85585,11.85585,0,0,1,3.28843-4.23555,7.74939,7.74939,0,0,1,6.53892-1.2796,6.81908,6.81908,0,0,1,1.61249.67811l-.58872,3.40376a.76928.76928,0,0,1-.79347.6398,3.9564,3.9564,0,0,1-1.10039-.24307,6.95438,6.95438,0,0,0-2.07308-.24307,5.871,5.871,0,0,0-3.97971,1.38219,10.37366,10.37366,0,0,0-2.67414,4.0176v16.50715Z"/><path class="cls-5" d="M88.92339,242.5903V259.123a6.88091,6.88091,0,0,0,1.35623,4.55566,5.0504,5.0504,0,0,0,4.09507,1.61164,7.83721,7.83721,0,0,0,3.76176-.94672,11.68829,11.68829,0,0,0,3.25052-2.63583V242.5903h4.55524v25.925h-2.71288a1.16176,1.16176,0,0,1-1.22852-.94672l-.358-2.78993a14.25559,14.25559,0,0,1-3.78773,3.007,9.92609,9.92609,0,0,1-4.81146,1.13913,9.36059,9.36059,0,0,1-3.749-.70408,7.42646,7.42646,0,0,1-2.72565-1.98283,8.41678,8.41678,0,0,1-1.6508-3.09727,13.81259,13.81259,0,0,1-.55-4.0176V242.5903Z"/><path class="cls-5" d="M128.28421,246.86416a1.00977,1.00977,0,0,1-.94672.56318,1.78046,1.78046,0,0,1-.87006-.28138q-.48656-.28159-1.19021-.627a11.20066,11.20066,0,0,0-1.67634-.6398,7.99558,7.99558,0,0,0-2.30337-.29457,6.79462,6.79462,0,0,0-2.07265.29457,4.984,4.984,0,0,0-1.57418.80582,3.57556,3.57556,0,0,0-.9978,1.19021,3.19736,3.19736,0,0,0-.34565,1.47159,2.4515,2.4515,0,0,0,.57595,1.66357,4.99381,4.99381,0,0,0,1.52267,1.15147,13.15423,13.15423,0,0,0,2.1497.85775q1.20234.37034,2.4698.79262,1.26685.4227,2.46939.9348a8.9426,8.9426,0,0,1,2.1497,1.2796,5.842,5.842,0,0,1,1.52267,1.88067,5.75706,5.75706,0,0,1,.57595,2.67414,8.47582,8.47582,0,0,1-.6398,3.31437,7.22649,7.22649,0,0,1-1.89387,2.63583,9.11645,9.11645,0,0,1-3.07088,1.753,12.61849,12.61849,0,0,1-4.19724.64023,13.09787,13.09787,0,0,1-4.91366-.88287,12.44277,12.44277,0,0,1-3.73665-2.26464l1.07485-1.741a1.56881,1.56881,0,0,1,.48656-.51167,1.36656,1.36656,0,0,1,.742-.17879,1.71294,1.71294,0,0,1,.97269.35843q.51148.35885,1.24129.79347a9.502,9.502,0,0,0,1.76573.79262,8.03578,8.03578,0,0,0,2.59752.35843,7.11032,7.11032,0,0,0,2.32891-.34565,4.873,4.873,0,0,0,1.66357-.93395,3.69889,3.69889,0,0,0,.98546-1.35623,4.22109,4.22109,0,0,0,.31969-1.638,2.71672,2.71672,0,0,0-.57595-1.77848,4.85932,4.85932,0,0,0-1.52267-1.203,12.43242,12.43242,0,0,0-2.16247-.87q-1.21573-.37034-2.48259-.7807-1.26681-.40866-2.48216-.93395a8.70261,8.70261,0,0,1-2.16247-1.31792,5.95571,5.95571,0,0,1-1.5231-1.95814,6.32977,6.32977,0,0,1-.57552-2.82739,6.89985,6.89985,0,0,1,.61426-2.85378,6.9997,6.9997,0,0,1,1.79128-2.40554,8.82032,8.82032,0,0,1,2.89209-1.6508,11.56686,11.56686,0,0,1,3.91544-.61426,12.39263,12.39263,0,0,1,4.594.80624,10.88092,10.88092,0,0,1,3.5187,2.214Z"/><path class="cls-5" d="M143.51093,268.92477a6.24945,6.24945,0,0,1-4.72167-1.71465,6.84279,6.84279,0,0,1-1.65037-4.9396V246.40357H134.0165a1.01819,1.01819,0,0,1-.69088-.24307.94258.94258,0,0,1-.2818-.75516V243.5885l4.24828-.53764,1.04931-8.01008a.9668.9668,0,0,1,.33288-.627,1.055,1.055,0,0,1,.71643-.24307h2.30339v8.93169h7.42136v3.30117H141.6941V261.964a3.306,3.306,0,0,0,.79347,2.43065,2.76832,2.76832,0,0,0,2.04754.79347,3.6253,3.6253,0,0,0,1.24129-.19156,5.43326,5.43326,0,0,0,.90842-.42228q.38314-.23115.65211-.42228a.85264.85264,0,0,1,.47339-.19241.7863.7863,0,0,1,.64023.435l1.33069,2.17524a8.4688,8.4688,0,0,1-2.841,1.72742A9.64673,9.64673,0,0,1,143.51093,268.92477Z"/><path class="cls-6" d="M165.00791,242.18079a11.57767,11.57767,0,0,1,4.2994.7807,9.65846,9.65846,0,0,1,3.40376,2.25229,10.26728,10.26728,0,0,1,2.23909,3.63406,14.04352,14.04352,0,0,1,.80624,4.926,2.979,2.979,0,0,1-.22987,1.4337.95727.95727,0,0,1-.87006.35843H157.40691a14.3133,14.3133,0,0,0,.66577,4.27386,8.73422,8.73422,0,0,0,1.68911,3.03257,6.75747,6.75747,0,0,0,2.55921,1.81684,8.78294,8.78294,0,0,0,3.32629.60106,9.74966,9.74966,0,0,0,2.95595-.39674,13.97045,13.97045,0,0,0,2.13693-.85733,16.03345,16.03345,0,0,0,1.49755-.85733,1.98316,1.98316,0,0,1,1.03611-.39589,1.0011,1.0011,0,0,1,.87006.435l1.2796,1.66272a8.65019,8.65019,0,0,1-2.02114,1.77933,12.61517,12.61517,0,0,1-2.5209,1.24129,16.04689,16.04689,0,0,1-2.77716.72877,16.99682,16.99682,0,0,1-2.841.24349,13.1852,13.1852,0,0,1-4.95155-.90841,10.85458,10.85458,0,0,1-3.91544-2.66222,12.18607,12.18607,0,0,1-2.572-4.33771,17.62443,17.62443,0,0,1-.922-5.93743,15.11273,15.11273,0,0,1,.83179-5.06691,11.93226,11.93226,0,0,1,2.39319-4.08188,11.00506,11.00506,0,0,1,3.81325-2.71288A12.52252,12.52252,0,0,1,165.00791,242.18079Zm.10216,3.35268a6.99485,6.99485,0,0,0-5.19505,1.90664,8.97559,8.97559,0,0,0-2.35488,5.28486h14.10119a9.21867,9.21867,0,0,0-.435-2.90484,6.467,6.467,0,0,0-1.2796-2.27741,5.73115,5.73115,0,0,0-2.05946-1.48436A6.95634,6.95634,0,0,0,165.11007,245.53347Z"/><path class="cls-6" d="M200.60526,268.51526h-2.02114a2.41775,2.41775,0,0,1-1.07528-.20433,1.13217,1.13217,0,0,1-.53721-.87092L196.46,265.0349q-1.02419.92075-1.99643,1.6508a11.44882,11.44882,0,0,1-2.04754,1.22852,10.62624,10.62624,0,0,1-2.29023.75431,13.15914,13.15914,0,0,1-2.69968.25626,9.208,9.208,0,0,1-2.82824-.42313,6.435,6.435,0,0,1-2.29022-1.272,6.04132,6.04132,0,0,1-1.54864-2.14462,7.50937,7.50937,0,0,1-.57552-3.06833,5.73449,5.73449,0,0,1,.84456-2.96616,7.43069,7.43069,0,0,1,2.72525-2.52941,17.7302,17.7302,0,0,1,4.926-1.81086,33.58251,33.58251,0,0,1,7.44778-.70578v-2.03479a7.05361,7.05361,0,0,0-1.29237-4.59653,4.6855,4.6855,0,0,0-3.826-1.55843,8.116,8.116,0,0,0-2.8027.42228,10.62414,10.62414,0,0,0-1.97006.94715q-.83266.52487-1.4337.94672a2.06515,2.06515,0,0,1-1.18936.42228,1.3602,1.3602,0,0,1-.80624-.24307,1.84922,1.84922,0,0,1-.55083-.60149l-.819-1.45882a14.81123,14.81123,0,0,1,4.63229-3.09642,14.30408,14.30408,0,0,1,5.50238-1.02377,9.82609,9.82609,0,0,1,3.86435.71643,7.92977,7.92977,0,0,1,2.841,1.99643,8.45405,8.45405,0,0,1,1.74019,3.09642,12.89955,12.89955,0,0,1,.58829,3.99248Zm-11.82293-2.78993a9.279,9.279,0,0,0,2.20078-.24264,8.6588,8.6588,0,0,0,1.88067-.69134,9.89853,9.89853,0,0,0,1.68911-1.0872,14.50456,14.50456,0,0,0,1.57418-1.45924v-5.34829a30.6013,30.6013,0,0,0-5.34914.39841,14.95472,14.95472,0,0,0-3.58255,1.04292,4.99913,4.99913,0,0,0-2.00923,1.51884,3.28041,3.28041,0,0,0-.62661,1.95644,4.32992,4.32992,0,0,0,.33288,1.776,3.35581,3.35581,0,0,0,.89564,1.22256,3.51974,3.51974,0,0,0,1.33069.69557A6.05736,6.05736,0,0,0,188.78233,265.72534Z"/><path class="cls-6" d="M215.37136,268.92477a6.24874,6.24874,0,0,1-4.72165-1.71465,6.84486,6.84486,0,0,1-1.6508-4.9396V246.40357h-3.122a1.02084,1.02084,0,0,1-.69134-.24307.945.945,0,0,1-.281-.75516V243.5885l4.24827-.53764,1.04888-8.01008a.96686.96686,0,0,1,.33288-.627,1.05613,1.05613,0,0,1,.71685-.24307h2.30295v8.93169h7.42136v3.30117h-7.42136V261.964a3.306,3.306,0,0,0,.79347,2.43065,2.76832,2.76832,0,0,0,2.04754.79347,3.6254,3.6254,0,0,0,1.24129-.19156,5.43264,5.43264,0,0,0,.90841-.42228q.38311-.23115.65209-.42228a.85263.85263,0,0,1,.47339-.19241.7863.7863,0,0,1,.64023.435l1.33069,2.17524a8.46906,8.46906,0,0,1-2.841,1.72742A9.64638,9.64638,0,0,1,215.37136,268.92477Z"/><path class="cls-6" d="M236.86837,242.18079a11.57767,11.57767,0,0,1,4.2994.7807,9.65834,9.65834,0,0,1,3.40376,2.25229,10.26747,10.26747,0,0,1,2.23909,3.63406,14.04382,14.04382,0,0,1,.80624,4.926,2.97879,2.97879,0,0,1-.22987,1.4337.95725.95725,0,0,1-.87.35843H229.26737a14.3133,14.3133,0,0,0,.66577,4.27386,8.7338,8.7338,0,0,0,1.68911,3.03257,6.75737,6.75737,0,0,0,2.55921,1.81684,8.783,8.783,0,0,0,3.32629.60106,9.74977,9.74977,0,0,0,2.95595-.39674,13.96991,13.96991,0,0,0,2.13693-.85733,16.03516,16.03516,0,0,0,1.49755-.85733,1.98324,1.98324,0,0,1,1.03611-.39589,1.00108,1.00108,0,0,1,.87.435l1.2796,1.66272a8.64993,8.64993,0,0,1-2.02114,1.77933,12.61517,12.61517,0,0,1-2.5209,1.24129,16.04721,16.04721,0,0,1-2.77716.72877,16.99694,16.99694,0,0,1-2.841.24349,13.1853,13.1853,0,0,1-4.95155-.90841,10.85447,10.85447,0,0,1-3.91544-2.66222,12.18568,12.18568,0,0,1-2.572-4.33771,17.62443,17.62443,0,0,1-.922-5.93743,15.11207,15.11207,0,0,1,.83179-5.06691,11.93247,11.93247,0,0,1,2.39319-4.08188,11.00506,11.00506,0,0,1,3.81324-2.71288A12.52254,12.52254,0,0,1,236.86837,242.18079Zm.10216,3.35268a6.99488,6.99488,0,0,0-5.19507,1.90664,8.97559,8.97559,0,0,0-2.35488,5.28486h14.10119a9.21906,9.21906,0,0,0-.435-2.90484,6.467,6.467,0,0,0-1.2796-2.27741,5.731,5.731,0,0,0-2.05946-1.48436A6.95628,6.95628,0,0,0,236.97054,245.53347Z"/><path class="cls-7" d="M50.65446,305.43478l2.171-17.8004h1.41285a.97726.97726,0,0,1,.6994.229.93879.93879,0,0,1,.24221.71259l-.15708,2.3021a9.60439,9.60439,0,0,1,1.05271-1.41319,7.64352,7.64352,0,0,1,1.197-1.07868,5.288,5.288,0,0,1,1.30132-.693,4.04037,4.04037,0,0,1,1.37964-.24179,3.59444,3.59444,0,0,1,1.51075.30734,2.96406,2.96406,0,0,1,1.14424.928,4.53171,4.53171,0,0,1,.72621,1.54353,8.12216,8.12216,0,0,1,.255,2.1514,10.63292,10.63292,0,0,1-.229,2.19738,10.87963,10.87963,0,0,1-.64747,2.06031,9.76361,9.76361,0,0,1-1.01355,1.81086,7.7625,7.7625,0,0,1-1.31451,1.44562,5.88371,5.88371,0,0,1-1.5563.95438,4.49472,4.49472,0,0,1-1.73934.34651,4.0319,4.0319,0,0,1-1.707-.35247,3.90243,3.90243,0,0,1-1.31451-.98165l-.67982,5.5722ZM58.868,289.70067a2.19818,2.19818,0,0,0-1.17063.3729,4.82961,4.82961,0,0,0-1.14424,1.03952,9.3083,9.3083,0,0,0-1.02674,1.56992,12.01317,12.01317,0,0,0-.81731,1.96155l-.41847,3.322a2.54185,2.54185,0,0,0,1.10507.82412,3.64671,3.64671,0,0,0,1.27492.235,2.702,2.702,0,0,0,1.17745-.26137,3.61854,3.61854,0,0,0,1.00675-.7194,5.381,5.381,0,0,0,.82412-1.07868,7.55709,7.55709,0,0,0,.61469-1.32813,9.15252,9.15252,0,0,0,.51-2.98149,3.96476,3.96476,0,0,0-.50316-2.217A1.63124,1.63124,0,0,0,58.868,289.70067Z"/><path class="cls-7" d="M75.49139,301.00087h-1.478a.84448.84448,0,0,1-.73218-.275,1.13927,1.13927,0,0,1-.19624-.67939l.16984-2.15821a10.06,10.06,0,0,1-.98077,1.36644,6.99036,6.99036,0,0,1-1.09868,1.03952,4.74715,4.74715,0,0,1-1.21616.66747,3.8103,3.8103,0,0,1-1.3209.235,3.36338,3.36338,0,0,1-1.42561-.30053,3.01657,3.01657,0,0,1-1.12508-.90245,4.50838,4.50838,0,0,1-.739-1.48478,7.05433,7.05433,0,0,1-.26818-2.04669,8.99909,8.99909,0,0,1,.301-2.32168,9.49179,9.49179,0,0,1,.85009-2.13182,9.35858,9.35858,0,0,1,1.3209-1.83725,8.52906,8.52906,0,0,1,1.72657-1.43881,8.3855,8.3855,0,0,1,2.05988-.9348,7.99792,7.99792,0,0,1,2.32168-.33374,11.10857,11.10857,0,0,1,1.73934.13707,7.53545,7.53545,0,0,1,1.68742.47762ZM69.71061,298.869a1.98273,1.98273,0,0,0,1.14424-.38567,4.67484,4.67484,0,0,0,1.05953-1.06,9.20235,9.20235,0,0,0,.93522-1.58865,14.72276,14.72276,0,0,0,.75857-1.98794l.53635-4.29q-.22285-.02554-.43845-.046c-.14385-.01277-.28989-.01958-.438-.01958a4.44148,4.44148,0,0,0-2.11224.52359,5.53038,5.53038,0,0,0-1.71338,1.41242,6.89219,6.89219,0,0,0-1.14424,2.05946,7.26355,7.26355,0,0,0-.41847,2.46556,4.02234,4.02234,0,0,0,.47719,2.20419A1.5347,1.5347,0,0,0,69.71061,298.869Z"/><path class="cls-7" d="M78.68273,301.00087l1.60866-13.36643h1.41244a.97846.97846,0,0,1,.69982.229.94028.94028,0,0,1,.24179.71259l-.15708,2.5243a10.56778,10.56778,0,0,1,1.11827-1.8049,5.45424,5.45424,0,0,1,1.24257-1.19021,3.07218,3.07218,0,0,1,1.32771-.51678,2.6558,2.6558,0,0,1,1.38645.2154l-.51039,2.69458a2.62655,2.62655,0,0,0-2.91.42483,8.09253,8.09253,0,0,0-2.00752,4.1138l-.70621,5.96382Z"/><path class="cls-7" d="M97.503,301.00087h-1.478a.84448.84448,0,0,1-.73218-.275,1.13931,1.13931,0,0,1-.19624-.67939l.16985-2.15821a10.05881,10.05881,0,0,1-.98077,1.36644,6.99041,6.99041,0,0,1-1.09869,1.03952,4.74708,4.74708,0,0,1-1.21616.66747,3.81027,3.81027,0,0,1-1.3209.235,3.36343,3.36343,0,0,1-1.42561-.30053,3.01663,3.01663,0,0,1-1.12508-.90245,4.50864,4.50864,0,0,1-.739-1.48478,7.05433,7.05433,0,0,1-.26818-2.04669,8.99967,8.99967,0,0,1,.301-2.32168,9.4921,9.4921,0,0,1,.85009-2.13182,9.35886,9.35886,0,0,1,1.3209-1.83725,8.52887,8.52887,0,0,1,1.72657-1.43881,8.38538,8.38538,0,0,1,2.05988-.9348,7.99788,7.99788,0,0,1,2.32168-.33374,11.10844,11.10844,0,0,1,1.73934.13707,7.5353,7.5353,0,0,1,1.68741.47762ZM91.72226,298.869a1.98274,1.98274,0,0,0,1.14424-.38567,4.67484,4.67484,0,0,0,1.05953-1.06,9.20138,9.20138,0,0,0,.93523-1.58865,14.72276,14.72276,0,0,0,.75857-1.98794l.53636-4.29q-.22285-.02554-.43845-.046c-.14384-.01277-.28989-.01958-.438-.01958a4.44148,4.44148,0,0,0-2.11224.52359,5.5303,5.5303,0,0,0-1.71338,1.41242,6.89219,6.89219,0,0,0-1.14424,2.05946,7.26354,7.26354,0,0,0-.41846,2.46556,4.02228,4.02228,0,0,0,.47719,2.20419A1.53468,1.53468,0,0,0,91.72226,298.869Z"/><path class="cls-7" d="M117.68386,290.65506a3.59373,3.59373,0,0,1-.3597,1.60908,3.3937,3.3937,0,0,1-1.28812,1.32132,9.33561,9.33561,0,0,1-2.55027,1.01994,27.68131,27.68131,0,0,1-4.14616.693v.3397a3.77084,3.77084,0,0,0,.7194,2.50467,2.67726,2.67726,0,0,0,2.15779.8437,3.95355,3.95355,0,0,0,1.50436-.2486,5.481,5.481,0,0,0,1.02675-.54232q.42464-.295.74538-.54312a1.08623,1.08623,0,0,1,.67343-.2486.68486.68486,0,0,1,.51039.26222l.70621.86329a13.06149,13.06149,0,0,1-1.33409,1.19617,7.5395,7.5395,0,0,1-1.33409.83093,6.25676,6.25676,0,0,1-1.42561.48358,7.87252,7.87252,0,0,1-1.62185.15665,5.33257,5.33257,0,0,1-2.09266-.39163,4.54938,4.54938,0,0,1-1.58908-1.10593,4.8474,4.8474,0,0,1-1.01355-1.72572,6.87165,6.87165,0,0,1-.35332-2.26974,9.558,9.558,0,0,1,.22263-2.05946,9.30351,9.30351,0,0,1,.647-1.9292,8.68132,8.68132,0,0,1,1.03356-1.69422,6.83581,6.83581,0,0,1,1.386-1.34005,6.50006,6.50006,0,0,1,1.71338-.88287,6.15333,6.15333,0,0,1,2.00795-.321,4.95339,4.95339,0,0,1,1.7917.29457,3.94378,3.94378,0,0,1,1.26215.75857,3.11778,3.11778,0,0,1,.75218,1.02675A2.715,2.715,0,0,1,117.68386,290.65506Zm-4.21131-1.19016a3.05988,3.05988,0,0,0-1.35367.30138,3.65307,3.65307,0,0,0-1.11189.83692,5.42638,5.42638,0,0,0-.85009,1.26173,7.15215,7.15215,0,0,0-.55594,1.5895,23.83482,23.83482,0,0,0,2.8972-.52359,7.20455,7.20455,0,0,0,1.687-.62746,1.90439,1.90439,0,0,0,.79135-.72622,1.77427,1.77427,0,0,0,.19624-.81731,1.23277,1.23277,0,0,0-.09154-.44441,1.10359,1.10359,0,0,0-.29415-.41887,1.68484,1.68484,0,0,0-.53-.30734A2.216,2.216,0,0,0,113.47255,289.4649Z"/><path class="cls-7" d="M127.98963,290.00121a.84129.84129,0,0,1-.24179.26222.56819.56819,0,0,1-.30734.07833.81867.81867,0,0,1-.43164-.13792q-.22285-.13664-.52955-.30734a4.27243,4.27243,0,0,0-.7262-.30734,3.2627,3.2627,0,0,0-1.00674-.13707,3.14774,3.14774,0,0,0-.98759.14385,2.40767,2.40767,0,0,0-.75218.39248,1.67348,1.67348,0,0,0-.47719.58829,1.636,1.636,0,0,0-.16346.7194,1.14933,1.14933,0,0,0,.22859.72622,2.11551,2.11551,0,0,0,.6083.51678,5.74362,5.74362,0,0,0,.86329.40525q.48336.18262.98759.37886a9.79228,9.79228,0,0,1,.98716.45122,3.89064,3.89064,0,0,1,.86329.61469,2.72719,2.72719,0,0,1,.6083.87,2.95768,2.95768,0,0,1,.229,1.2166,4.506,4.506,0,0,1-.3729,1.8049,4.43176,4.43176,0,0,1-1.07272,1.51032,5.2848,5.2848,0,0,1-1.687,1.03356,6.01332,6.01332,0,0,1-2.20376.38567,5.50162,5.50162,0,0,1-2.29528-.46485,4.68879,4.68879,0,0,1-1.64144-1.16978l.693-1.07272a1.05894,1.05894,0,0,1,.301-.30734.74887.74887,0,0,1,.41846-.11153.72591.72591,0,0,1,.45761.17708q.22223.17623.53.39163a3.64473,3.64473,0,0,0,.75176.39248,3.1483,3.1483,0,0,0,1.151.17708,3.10106,3.10106,0,0,0,1.04633-.16346,2.24681,2.24681,0,0,0,.77176-.45122,2.01719,2.01719,0,0,0,.484-.66747,1.92918,1.92918,0,0,0,.16985-.7977,1.29573,1.29573,0,0,0-.229-.785,2.05112,2.05112,0,0,0-.60788-.54232,4.73458,4.73458,0,0,0-.8569-.39929q-.4776-.16989-.98077-.35332a9.69051,9.69051,0,0,1-.98077-.418,3.56115,3.56115,0,0,1-.8569-.58829,2.6621,2.6621,0,0,1-.6083-.85733,2.98046,2.98046,0,0,1-.22859-1.23533,4.39473,4.39473,0,0,1,1.3209-3.12622,4.8,4.8,0,0,1,1.56949-1.00717,5.56317,5.56317,0,0,1,2.11863-.37886,5.39368,5.39368,0,0,1,2.191.418,5.0288,5.0288,0,0,1,1.615,1.11189Z"/><path class="cls-7" d="M130.86721,298.37185c0-.06045.00174-.13281.00639-.2154.00426-.08343.0132-.20263.026-.36013q.01979-.235.05917-.62746.039-.39205.11749-1.00717l.77176-6.29075H130.5007a.44285.44285,0,0,1-.35289-.15069.55506.55506,0,0,1-.09154-.45122l.13068-1.13828,2.0271-.3133,1.04633-3.85839a.81221.81221,0,0,1,.24221-.36013.6013.6013,0,0,1,.39887-.13707h1.49078l-.54913,4.38113h3.3612l-.23539,2.028h-3.37439l-.74538,6.1341q-.06577.53636-.10472.85647-.039.32054-.05874.51c-.0132.12685-.02214.21369-.02639.26137-.00426.04853-.00639.08514-.00639.11153a1.25529,1.25529,0,0,0,.27457.87606.97394.97394,0,0,0,.75857.30053,1.51742,1.51742,0,0,0,.53636-.08429,2.80124,2.80124,0,0,0,.39248-.1839,3.20367,3.20367,0,0,0,.28776-.18307.38659.38659,0,0,1,.22221-.08429.30932.30932,0,0,1,.20944.05874.62568.62568,0,0,1,.13068.20263l.60149,1.37325a5.14957,5.14957,0,0,1-1.53672.88287,4.96684,4.96684,0,0,1-1.707.30734,2.98308,2.98308,0,0,1-2.13182-.739A2.86488,2.86488,0,0,1,130.86721,298.37185Z"/><path class="cls-7" d="M150.00172,290.65506a3.59332,3.59332,0,0,1-.35928,1.60908,3.39361,3.39361,0,0,1-1.289,1.32132,9.31627,9.31627,0,0,1-2.55069,1.01994,27.65329,27.65329,0,0,1-4.14616.693v.3397a3.76847,3.76847,0,0,0,.72026,2.50467,2.67818,2.67818,0,0,0,2.15736.8437,3.95688,3.95688,0,0,0,1.50522-.2486,5.53516,5.53516,0,0,0,1.02675-.54232q.424-.295.74409-.54312a1.09126,1.09126,0,0,1,.67428-.2486.68637.68637,0,0,1,.51082.26222l.70493.86329a12.96928,12.96928,0,0,1-1.33324,1.19617,7.48412,7.48412,0,0,1-1.33494.83093,6.239,6.239,0,0,1-1.42519.48358,7.86435,7.86435,0,0,1-1.621.15665,5.32814,5.32814,0,0,1-2.09266-.39163,4.54759,4.54759,0,0,1-1.5895-1.10593,4.8474,4.8474,0,0,1-1.01355-1.72572,6.87165,6.87165,0,0,1-.35332-2.26974,9.558,9.558,0,0,1,.22263-2.05946,9.30351,9.30351,0,0,1,.647-1.9292,8.68132,8.68132,0,0,1,1.03356-1.69422,6.83974,6.83974,0,0,1,1.38688-1.34005,6.47723,6.47723,0,0,1,1.71295-.88287,6.148,6.148,0,0,1,2.00752-.321,4.954,4.954,0,0,1,1.79128.29457,3.93693,3.93693,0,0,1,1.26173.75857,3.08324,3.08324,0,0,1,.75261,1.02675A2.71574,2.71574,0,0,1,150.00172,290.65506Zm-4.21086-1.19016a3.05757,3.05757,0,0,0-1.35367.30138,3.63768,3.63768,0,0,0-1.11188.83692,5.386,5.386,0,0,0-.84966,1.26173,7.13246,7.13246,0,0,0-.55679,1.5895,23.75245,23.75245,0,0,0,2.89635-.52359,7.1934,7.1934,0,0,0,1.68741-.62746,1.90847,1.90847,0,0,0,.79177-.72622,1.77393,1.77393,0,0,0,.19581-.81731,1.25713,1.25713,0,0,0-.09024-.44441,1.11415,1.11415,0,0,0-.29457-.41887,1.69192,1.69192,0,0,0-.52955-.30734A2.22086,2.22086,0,0,0,145.79086,289.4649Z"/><path class="cls-7" d="M157.03827,287.65995h2.28935a.70024.70024,0,0,1,.48358.16346.66991.66991,0,0,1,.22221.38652l1.67464,7.76872q.09069.58872.14984,1.151.05876.5619.09791,1.12463.16987-.54913.3729-1.11188.20307-.5619.45122-1.16384l3.62342-7.76872a.95236.95236,0,0,1,.32011-.39248.79368.79368,0,0,1,.47762-.1575h2.19738l-6.61853,13.34092h-2.354Z"/><path class="cls-7" d="M180.2925,290.65506a3.59389,3.59389,0,0,1-.36013,1.60908,3.397,3.397,0,0,1-1.28812,1.32132,9.32785,9.32785,0,0,1-2.55069,1.01994,27.67423,27.67423,0,0,1-4.14616.693v.3397a3.77312,3.77312,0,0,0,.7194,2.50467,2.67888,2.67888,0,0,0,2.15821.8437,3.95248,3.95248,0,0,0,1.50437-.2486,5.481,5.481,0,0,0,1.02675-.54232q.42526-.295.74495-.54312a1.0877,1.0877,0,0,1,.67428-.2486.68467.68467,0,0,1,.51.26222l.70578.86329a12.974,12.974,0,0,1-1.33409,1.19617,7.50931,7.50931,0,0,1-1.33409.83093,6.239,6.239,0,0,1-1.42519.48358,7.87252,7.87252,0,0,1-1.62185.15665,5.33114,5.33114,0,0,1-2.09266-.39163,4.56286,4.56286,0,0,1-1.5895-1.10593,4.84663,4.84663,0,0,1-1.01313-1.72572,6.861,6.861,0,0,1-.35332-2.26974,9.585,9.585,0,0,1,.22221-2.05946,9.28042,9.28042,0,0,1,.64789-1.9292,8.65679,8.65679,0,0,1,1.03271-1.69422,6.83974,6.83974,0,0,1,1.38688-1.34005,6.49093,6.49093,0,0,1,1.71295-.88287,6.148,6.148,0,0,1,2.00752-.321,4.95629,4.95629,0,0,1,1.79213.29457,3.93693,3.93693,0,0,1,1.26173.75857,3.1069,3.1069,0,0,1,.75261,1.02675A2.71569,2.71569,0,0,1,180.2925,290.65506Zm-4.21171-1.19021a3.05757,3.05757,0,0,0-1.35367.30138,3.64832,3.64832,0,0,0-1.11188.83692,5.41183,5.41183,0,0,0-.84966,1.26173,7.089,7.089,0,0,0-.55594,1.5895,23.81565,23.81565,0,0,0,2.89635-.52359,7.1934,7.1934,0,0,0,1.68741-.62746,1.90847,1.90847,0,0,0,.79177-.72622,1.78449,1.78449,0,0,0,.19581-.81731,1.2408,1.2408,0,0,0-.0911-.44441,1.10452,1.10452,0,0,0-.29457-.41887,1.68239,1.68239,0,0,0-.52955-.30734,2.22021,2.22021,0,0,0-.785-.12427Z"/><path class="cls-7" d="M181.8488,301.00087l1.60823-13.36643h1.41242a.97624.97624,0,0,1,.69982.229.93722.93722,0,0,1,.24264.71259l-.1575,2.5243a10.59462,10.59462,0,0,1,1.1187-1.8049,5.45261,5.45261,0,0,1,1.24214-1.19021,3.075,3.075,0,0,1,1.32728-.51678,2.656,2.656,0,0,1,1.38688.2154l-.51,2.69458a2.62616,2.62616,0,0,0-2.91.42483,8.08322,8.08322,0,0,0-2.00837,4.1138l-.70578,5.96382Z"/><path class="cls-7" d="M200.66911,301.00087h-1.478a.84678.84678,0,0,1-.733-.275,1.142,1.142,0,0,1-.19581-.67939l.17027-2.15821a10.13264,10.13264,0,0,1-.98077,1.36644,6.99261,6.99261,0,0,1-1.09911,1.03952,4.7497,4.7497,0,0,1-1.2166.66747,3.80791,3.80791,0,0,1-1.32047.235,3.36368,3.36368,0,0,1-1.426-.30053,3.01883,3.01883,0,0,1-1.12463-.90245,4.50017,4.50017,0,0,1-.739-1.48478,7.05434,7.05434,0,0,1-.26818-2.04669,8.98106,8.98106,0,0,1,.30138-2.32168,9.47079,9.47079,0,0,1,.84966-2.13182,9.30816,9.30816,0,0,1,1.32129-1.83725,8.50592,8.50592,0,0,1,1.72657-1.43881,8.38351,8.38351,0,0,1,2.05946-.9348,7.99413,7.99413,0,0,1,2.32168-.33374,11.10857,11.10857,0,0,1,1.73934.13707,7.52949,7.52949,0,0,1,1.68741.47762Zm-5.78163-2.13182a1.98736,1.98736,0,0,0,1.14509-.38567,4.67271,4.67271,0,0,0,1.0591-1.06,9.20208,9.20208,0,0,0,.9348-1.58865,14.72276,14.72276,0,0,0,.75857-1.98794l.53636-4.29c-.14814-.017-.29372-.03235-.43766-.046-.14385-.01277-.29032-.01958-.43845-.01958a4.44141,4.44141,0,0,0-2.11224.52359,5.52912,5.52912,0,0,0-1.71295,1.41242,6.89423,6.89423,0,0,0-1.14509,2.05946,7.263,7.263,0,0,0-.418,2.46556,4.03037,4.03037,0,0,0,.47677,2.20419A1.53564,1.53564,0,0,0,194.88748,298.869Z"/><path class="cls-7" d="M203.8728,301.00087l1.59546-13.36643h1.41242a.97624.97624,0,0,1,.69982.229.93733.93733,0,0,1,.24264.71259l-.14385,2.1054a7.85089,7.85089,0,0,1,2.32764-2.41958,4.87967,4.87967,0,0,1,2.64179-.8105,3.24041,3.24041,0,0,1,1.49159.33288,2.76045,2.76045,0,0,1,1.07187.98165,4.14943,4.14943,0,0,1,.57552,1.58865,7.7228,7.7228,0,0,1,.01362,2.15821l-1.00717,8.48813h-2.79929l1.00717-8.48813a3.6398,3.6398,0,0,0-.16346-2.07308,1.29,1.29,0,0,0-1.249-.64789,2.49246,2.49246,0,0,0-1.1834.3278,4.64873,4.64873,0,0,0-1.17063.922,7.35432,7.35432,0,0,0-1.04037,1.438,9.2829,9.2829,0,0,0-.79092,1.87726l-.73218,6.64407Z"/><path class="cls-7" d="M222.969,301.19671a5.40384,5.40384,0,0,1-2.0271-.372,4.45757,4.45757,0,0,1-1.60227-1.08549,5.01988,5.01988,0,0,1-1.05314-1.753,6.85654,6.85654,0,0,1-.37971-2.36084,9.30165,9.30165,0,0,1,.54312-3.20454,8.36738,8.36738,0,0,1,1.48478-2.59582,7.01354,7.01354,0,0,1,2.20334-1.73934,5.929,5.929,0,0,1,2.70139-.63427,5.41034,5.41034,0,0,1,2.0271.372,4.39409,4.39409,0,0,1,1.59546,1.08634,5.07277,5.07277,0,0,1,1.04633,1.75211,6.86072,6.86072,0,0,1,.37886,2.36084,9.39024,9.39024,0,0,1-.94161,4.12657,7.87181,7.87181,0,0,1-1.07868,1.65421,7.27952,7.27952,0,0,1-1.39965,1.27535,6.46431,6.46431,0,0,1-1.65421.82412A5.84678,5.84678,0,0,1,222.969,301.19671Zm.2486-2.19653a2.76624,2.76624,0,0,0,1.59546-.49124,4.22691,4.22691,0,0,0,1.22256-1.31366,6.90138,6.90138,0,0,0,.77815-1.90366,9.11492,9.11492,0,0,0,.275-2.25612,4.20691,4.20691,0,0,0-.63427-2.55665,2.21687,2.21687,0,0,0-1.87726-.83093,2.78825,2.78825,0,0,0-1.60227.48443,4.16765,4.16765,0,0,0-1.20979,1.29493,6.80056,6.80056,0,0,0-.77134,1.896,9.25647,9.25647,0,0,0-.275,2.2757q0,3.40078,2.49876,3.40118Z"/></g><g id="Capa_4" data-name="Capa 4"><g class="cls-8"><polygon class="cls-9" points="224.102 376.525 214.357 382.808 192.17 355.942 208.198 343.762 224.102 376.525"/><path class="cls-10" d="M245.57,364.468a30.27792,30.27792,0,0,0,3.40866-16.02583c-22.50857.23152-24.99187,12.08821-24.99187,12.08821-1.76635-3.74857-5.31373-4.26247-9.20314-3.20811l9.32079,19.19688h0l-9.74748,6.28915h0l-.00639-.00583-13.58978-16.45639c-1.5253,1.67884-2.41964,3.15684-2.185,3.94052,0,0-9.78369-7.14693-26.66019,7.743a30.42619,30.42619,0,0,0,13.6753,9.85175c-14.97223,8.32-27.43142,19.35643-29.61285,35.56949,41.35056-3.14245,45.52189-25.27093,45.52189-25.27093,11.582,23.447,33.16983,23.39508,36.39838,23.2943,2.46646-2.08574,18.54221-16.49427,11.457-41.66778,0,0,10.93591,16.32823,43.76844-9.011C279.76856,360.43983,262.30458,360.598,245.57,364.468Z"/><path class="cls-11" d="M287.6599,375.0507c-.07907-.04416-.15011-.09974-.22918-.14391-28.40394,19.28258-38.079,4.901-38.079,4.901,7.08521,25.1735-8.99057,39.582-11.457,41.66778-3.22854.10078-24.81636.15271-36.39838-23.2943,0,0-3.5953,18.19286-35.24472,23.88839-.0414.08631-.08143.17621-.12641.26387.09216-.01881.19569-.02958.28421-.047-5.37451,12.16752-4.74165,27.61065,3.20634,48.3119,17.77019,46.27327,88.00614,90.22583,115.62224,79.623s50.39141-90.26595,32.62344-136.54417c-8.09626-21.0874-18.18349-33.03729-30.63055-38.34175C287.37142,375.24843,287.52081,375.14139,287.6599,375.0507Z"/><path class="cls-12" d="M194.4619,434.63956a1.61093,1.61093,0,0,0-2.87275,1.103s1.86428,21.20669,2.57235,23.05086a7.39927,7.39927,0,1,0,13.81529-5.30423C207.26731,451.64138,194.4619,434.63956,194.4619,434.63956Z"/><path class="cls-12" d="M242.69175,432.68628a1.61093,1.61093,0,0,0-2.87275,1.103s1.86428,21.20667,2.57235,23.05089a7.39927,7.39927,0,1,0,13.81529-5.30423C255.49715,449.68813,242.69175,432.68628,242.69175,432.68628Z"/><path class="cls-12" d="M277.45236,402.72669a1.61094,1.61094,0,0,0-2.87278,1.103s1.86428,21.20669,2.57235,23.05089a7.39927,7.39927,0,1,0,13.81529-5.3042C290.25779,419.72853,277.45236,402.72669,277.45236,402.72669Z"/><path class="cls-12" d="M229.91741,474.9137a1.61093,1.61093,0,0,0-2.87275,1.10295s1.86428,21.20669,2.57235,23.05091a7.39927,7.39927,0,1,0,13.81529-5.30423C242.72282,491.91549,229.91741,474.9137,229.91741,474.9137Z"/><path class="cls-12" d="M267.61649,497.60507a1.61093,1.61093,0,0,0-2.87275,1.10295s1.86428,21.20669,2.57235,23.05091a7.39927,7.39927,0,1,0,13.81529-5.30423C280.4219,514.60692,267.61649,497.60507,267.61649,497.60507Z"/><path class="cls-12" d="M280.42546,455.4679a1.611,1.611,0,0,0-2.87278,1.10295s1.86428,21.20669,2.57235,23.05086a7.39927,7.39927,0,1,0,13.81529-5.30423C293.23087,472.46975,280.42546,455.4679,280.42546,455.4679Z"/></g></g><g id="Capa_1-2" data-name="Capa 1"><path class="cls-5" d="M80.02283,124.73536a19.16464,19.16464,0,0,1-38.32927,0c0-7.59679,9.89885-27.39449,15.48134-37.92641a4.20125,4.20125,0,0,1,7.36658,0C70.124,97.34086,80.02283,117.13856,80.02283,124.73536Z"/><path class="cls-13" d="M135.56,169.28018a19.16464,19.16464,0,0,1-38.32928,0c0-7.59679,9.89884-21.06382,15.48135-31.59576a4.20125,4.20125,0,0,1,7.36658,0C125.66113,148.21635,135.56,161.6834,135.56,169.28018Z"/><path class="cls-5" d="M182.9616,44.27842A100.54239,100.54239,0,0,0,54.39166,55.78871l128.56993,128.57Z"/><path class="cls-13" d="M182.9616,69.25576a81.43531,81.43531,0,0,0-115.10291,0L182.9616,184.35867Z"/><path class="cls-14" d="M183.01856,68.81466c-1.08146-1.07087-2.27675-2.029-3.41514-3.04353L131.16536,113.9603V45.79408H120.12352l-.4685.46133v76.29318l4.86073,4.78634h0l4.86073,4.78634h53.58516V120.611H137.42642L182.9616,75.5217v-6.707Z"/><path class="cls-5" d="M171.45133,40.03893h74.81687V57.30437H188.71677v46.04117h57.55143V120.611H188.71677v63.30659H171.45133Z"/></g></svg>