<?xml version="1.0" encoding="utf-8"?>
<!-- Generator: Adobe Illustrator 21.1.0, SVG Export Plug-In . SVG Version: 6.00 Build 0)  -->
<svg version="1.1" id="Layer_1" xmlns="http://www.w3.org/2000/svg" xmlns:xlink="http://www.w3.org/1999/xlink" x="0px" y="0px"
	 viewBox="0 0 508 508" style="enable-background:new 0 0 508 508;" xml:space="preserve">
<style type="text/css">
	.st0{fill:#E21B1B;}
	.st1{opacity:0.1;clip-path:url(#SVGID_2_);fill:#FFFFFF;enable-background:new    ;}
	.st2{fill:#FFFFFF;}
</style>
<title>cancel</title>
<g>
	<g>
		<path id="XMLID_1_" class="st0" d="M89,0h330c49.2,0,89,39.8,89,89v330c0,49.2-39.8,89-89,89H89c-49.2,0-89-39.8-89-89V89
			C0,39.8,39.8,0,89,0z"/>
	</g>
	<g>
		<defs>
			<path id="SVGID_1_" d="M89,0h330c49.2,0,89,39.8,89,89v330c0,49.2-39.8,89-89,89H89c-49.2,0-89-39.8-89-89V89C0,39.8,39.8,0,89,0
				z"/>
		</defs>
		<clipPath id="SVGID_2_">
			<use xlink:href="#SVGID_1_"  style="overflow:visible;"/>
		</clipPath>
		<rect x="254" y="-11" class="st1" width="270" height="554"/>
	</g>
</g>
<g>
	<g>
		<g id="delete_1_">
			<path class="st2" d="M146,380c0,19.8,16.2,36,36,36h144c19.8,0,36-16.2,36-36V164H146V380z M380,110h-63l-18-18h-90l-18,18h-63
				v36h252V110z"/>
		</g>
	</g>
	<g>
	</g>
	<g>
	</g>
	<g>
	</g>
	<g>
	</g>
	<g>
	</g>
	<g>
	</g>
	<g>
	</g>
	<g>
	</g>
	<g>
	</g>
	<g>
	</g>
	<g>
	</g>
	<g>
	</g>
	<g>
	</g>
	<g>
	</g>
	<g>
	</g>
</g>
</svg>
