<?xml version="1.0" encoding="utf-8"?>
<!-- Generator: Adobe Illustrator 21.1.0, SVG Export Plug-In . SVG Version: 6.00 Build 0)  -->
<svg version="1.1" id="Capa_1" xmlns="http://www.w3.org/2000/svg" xmlns:xlink="http://www.w3.org/1999/xlink" x="0px" y="0px"
	 viewBox="0 0 500 500" style="enable-background:new 0 0 500 500;" xml:space="preserve">
<style type="text/css">
	.st0{fill:#FCD462;}
	.st1{fill:#64798A;}
	.st2{fill:#E56353;}
	.st3{fill:#8EE8A1;}
</style>
<g>
	<path class="st0" d="M405.5,215.3l69.9-21.3l-47-158c-2.1-7.5-9.6-11.2-17.1-9.1L255.6,74.4l21.3,71c2.7-5.3,7.5-9.6,13.3-11.2
		c13.3-4.3,27.2,5.3,28.3,19.7c0.5,8.5-4.3,17.1-11.7,20.8c-7.5,3.7-14.9,3.2-21.3-0.5l21.3,71l69.9-21.3
		c-3.7,6.4-4.3,14.4-0.5,21.3c3.7,7.5,12.3,12.3,20.8,11.7c14.4-1.1,23.5-15.5,19.7-28.8C415.1,222.3,410.9,217.5,405.5,215.3z"/>
	<path class="st1" d="M240.6,163.6c-6.4,0-16.3,6.9-16.3,6.9V96.9h-163c-7.5,0-13.4,5.9-13.4,13.9V275h73.6c0,0-6.9-9.5-6.9-15.9
		c0-13.9,12.8-25.1,27.2-21.3c8,2.1,14.9,9.1,16.5,17.1c1.6,8-1.1,15.5-6.4,21.1h73.2v-75c4.7,5.3,12.2,8,20.2,6.4
		c8.5-1.6,14.9-8,17.1-16.5C265.2,176.4,254.5,163.6,240.6,163.6z"/>
	<path class="st2" d="M326.8,274c5.3,4.8,8,12.3,6.4,20.3c-1.6,8.5-8,15.5-16.5,17.1c-14.4,3.2-27.1-7.5-27.1-21.4
		c0-6.4,2.7-12.3,6.9-16h-73.2l-0.3,71c-4.5-5.3-11.7-4.7-19.7-3.1c-8.5,1.6-14.9,8-17.1,16.5C183,372.8,193.1,391,207,391
		c6.4,0,15,0,15,0l2.2,62h162.1c7.4,0,13.3-5.9,13.3-13.9V274H326.8z"/>
	<path class="st3" d="M205.3,342.4c8-1.6,20,6.4,20,6.4V275h-73.2c5.3-4.8,8-12.3,6.4-20.3c-1.6-8.5-8-15.5-16.6-17.1
		c-14.4-3.2-27.3,7.5-27.3,21.3c0,6.4,2.7,12.3,6.9,16H49v164.2c0,7.6,6.2,13.9,13.9,13.9h162.4v-73.9c-3.4,4.3-9.3,6.9-15.7,6.9
		c-13.9,0-24.6-12.8-21.3-27.2C190.4,350.9,197.3,344,205.3,342.4z"/>
	<g>
	</g>
	<g>
	</g>
	<g>
	</g>
	<g>
	</g>
	<g>
	</g>
	<g>
	</g>
	<g>
	</g>
	<g>
	</g>
	<g>
	</g>
	<g>
	</g>
	<g>
	</g>
	<g>
	</g>
	<g>
	</g>
	<g>
	</g>
	<g>
	</g>
</g>
</svg>
