<svg id="Capa_1" data-name="Capa 1" xmlns="http://www.w3.org/2000/svg" viewBox="0 0 36 28.19"><defs><style>.cls-1{fill:#f1b501;}.cls-2{fill:#f9da49;}.cls-3{fill:#f9ea80;}</style></defs><title>Logo_Frust</title><path class="cls-1" d="M7.66,21.64a3.33,3.33,0,0,1-6.66,0c0-1.32,1.72-4.76,2.69-6.59a.73.73,0,0,1,1.28,0C5.94,16.88,7.66,20.32,7.66,21.64Z" transform="translate(-1 -4.52)"/><path class="cls-2" d="M17.31,29.38a3.33,3.33,0,0,1-6.66,0c0-1.32,1.72-3.66,2.69-5.49a.73.73,0,0,1,1.28,0C15.59,25.72,17.31,28.06,17.31,29.38Z" transform="translate(-1 -4.52)"/><path class="cls-1" d="M25.11,7.66a17.47,17.47,0,0,0-22.34,2L25.11,32V7.66Z" transform="translate(-1 -4.52)"/><path class="cls-2" d="M25.11,12a14.15,14.15,0,0,0-20,0l20,20Z" transform="translate(-1 -4.52)"/><path class="cls-3" d="M25.11,12.2c-.19-.19-.4-.36-.6-.54L16,20.21V8.08H14.37l-.08.08V21.39l.83.83h0l.83.83h9.15V21.39h-8l8-8V12.2Z" transform="translate(-1 -4.52)"/><path class="cls-1" d="M23.3,7.12H37V9.87H26.58v8.46h9.63V21H26.58V32.56H23.3Z" transform="translate(-1 -4.52)"/></svg>