<?xml version="1.0" encoding="utf-8"?>
<!-- Generator: Adobe Illustrator 21.1.0, SVG Export Plug-In . SVG Version: 6.00 Build 0)  -->
<svg version="1.1" id="Layer_1" xmlns="http://www.w3.org/2000/svg" xmlns:xlink="http://www.w3.org/1999/xlink" x="0px" y="0px"
	 viewBox="0 0 512 512" style="enable-background:new 0 0 512 512;" xml:space="preserve">
<style type="text/css">
	.st0{fill:#E9EFF4;}
	.st1{fill:#CFDBE6;}
	.st2{fill:#B8C9D9;}
	.st3{fill:#FFFFFF;}
	.st4{fill:#D0D1D3;}
	.st5{fill:#F4E3C3;}
	.st6{fill:#E5B88F;}
	.st7{fill:#FED8B2;}
	.st8{fill:#464647;}
	.st9{fill:#272525;}
	.st10{fill:#84DBFF;}
	.st11{fill:#2B9ED8;}
	.st12{fill:#324A5E;}
	.st13{fill:#2B3B4E;}
	.st14{fill:#1D2C3A;}
	.st15{fill:#31BAFD;}
	.st16{fill:#808183;}
	.st17{fill:#59595B;}
</style>
<polygon class="st0" points="370.5,9.2 61.7,9.2 61.7,512 463.9,512 463.9,102.6 "/>
<polygon class="st1" points="448.7,98 355.2,4.6 246.5,4.6 246.5,507.4 448.7,507.4 "/>
<polygon class="st2" points="354.2,100.5 447.7,100.5 354.2,7 "/>
<path class="st3" d="M335.8,303.6H157.2v-30.3c0-21.5,13.8-40.6,34.2-47.4l32.8-10.9h44.7l32.8,10.9c20.4,6.8,34.2,25.9,34.2,47.4
	L335.8,303.6L335.8,303.6z"/>
<path class="st4" d="M335.8,273.3c0-21.5-13.8-40.6-34.2-47.4L268.9,215h-23.5v88.6h90.5V273.3z"/>
<polygon class="st5" points="268.9,215 246.5,237.3 224.2,215 224.2,192.6 268.9,192.6 "/>
<polygon class="st6" points="245.4,192.6 245.4,236.1 246.5,237.3 268.9,215 268.9,192.6 "/>
<path class="st5" d="M201.9,148c0-24.7,20-44.7,44.7-44.7s44.7,20,44.7,44.7c0,24.7-20,67-44.7,67C221.9,215,201.9,172.6,201.9,148z
	"/>
<path class="st7" d="M246.5,103.3c-0.4,0-0.8,0.1-1.1,0.1v111.5c0.4,0,0.8,0.1,1.1,0.1c24.7,0,44.7-42.3,44.7-67
	C291.2,123.3,271.2,103.3,246.5,103.3z"/>
<path class="st8" d="M291.2,148c0-24.7-20-44.7-44.7-44.7c-24.7,0-44.7,20-44.7,44.7c0,9.8,3.2,22.5,8.6,34.1
	c-1.3-6.7-0.9-13.6-0.3-18.7c28.3-2.2,55.7-15.5,55.7-15.5s3.5,6.4,16.4,12c0.9,5.3,1.8,13.9,0.3,22.2
	C288,170.5,291.2,157.8,291.2,148z"/>
<path class="st9" d="M291.2,148c0-24.7-20-44.7-44.7-44.7c-0.4,0-0.8,0.1-1.1,0.1v52.5c12.2-4,20.5-8,20.5-8s3.5,6.4,16.4,12
	c0.9,5.3,1.8,13.9,0.3,22.2C288,170.5,291.2,157.8,291.2,148z"/>
<polygon class="st10" points="237.1,302.8 243.4,244.7 249.7,244.7 255.9,302.8 "/>
<polygon class="st11" points="249.7,244.7 245.4,244.7 245.4,302.8 255.9,302.8 "/>
<path class="st12" d="M214,218.4l-22.6,7.5c-20.4,6.8-34.2,25.9-34.2,47.4v30.3h88.2v-3.8L214,218.4z"/>
<path class="st13" d="M335.8,273.3c0-21.5-13.8-40.6-34.2-47.4l-22.6-7.5l-32.5,84.4l-1.1-3v3.8h90.5L335.8,273.3L335.8,273.3z"/>
<polygon class="st14" points="279.1,218.4 285.3,244.7 273.5,250.6 285.3,264.1 246.5,302.8 "/>
<polygon class="st13" points="214,218.4 207.8,244.7 219.5,250.6 207.8,264.1 246.5,302.8 "/>
<polygon class="st15" points="258.9,237.4 250.6,256.8 242.4,256.8 234.2,237.4 "/>
<polygon class="st11" points="258.9,237.4 245.4,237.4 245.4,256.8 250.6,256.8 "/>
<polygon class="st0" points="265.9,244.7 279.1,218.4 268.9,215 246.5,237.3 "/>
<polygon class="st3" points="227.2,244.7 214,218.4 224.2,215 246.5,237.3 "/>
<g>
	<rect x="170.3" y="362.7" class="st16" width="152.4" height="9.2"/>
	<rect x="170.3" y="398.5" class="st16" width="152.4" height="9.2"/>
	<rect x="170.3" y="434.3" class="st16" width="152.4" height="9.2"/>
</g>
<g>
	<rect x="245.5" y="362.7" class="st17" width="77.2" height="9.2"/>
	<rect x="245.5" y="398.5" class="st17" width="77.2" height="9.2"/>
	<rect x="245.5" y="434.3" class="st17" width="77.2" height="9.2"/>
</g>
</svg>
