<?xml version="1.0" encoding="utf-8"?>
<!-- Generator: Adobe Illustrator 21.1.0, SVG Export Plug-In . SVG Version: 6.00 Build 0)  -->
<svg version="1.1" id="Layer_1" xmlns="http://www.w3.org/2000/svg" xmlns:xlink="http://www.w3.org/1999/xlink" x="0px" y="0px"
	 viewBox="0 0 417.1 417.1" style="enable-background:new 0 0 417.1 417.1;" xml:space="preserve">
<style type="text/css">
	.st0{fill:#FCD09F;}
	.st1{fill:#5BE03B;}
	.st2{fill:#FFFFFF;}
	.st3{fill:#1EA6C6;}
</style>
<g>
	<g>
		<g>
			<g id="XMLID_16_">
				<g>
					<path class="st0" d="M176.5,0C223.2,0,261,37.8,261,84.5c0,46.7-37.8,110.5-84.5,110.5S92,131.1,92,84.5
						C92,37.8,129.8,0,176.5,0z"/>
				</g>
			</g>
		</g>
		<circle class="st1" cx="303.4" cy="327.1" r="90"/>
		<g>
			<rect x="241.1" y="319.6" class="st2" width="124.5" height="15"/>
		</g>
		<g>
			<rect x="295.9" y="264.9" class="st2" width="15" height="124.5"/>
		</g>
	</g>
	<path class="st3" d="M199.4,327.1c0,21.7,6.7,41.9,18.1,58.5c-13.3,2.4-27,3.7-40.9,3.7c-58.8,0-112.4-22.3-152.8-58.9v-0.1
		c0-60.9,35.6-113.4,87.2-138c19.4,19.3,42.1,29.7,65.6,29.7c23.5,0,46.2-10.4,65.6-29.7c16.8,8,31.8,18.9,44.5,32.2
		C237.2,232.5,199.4,275.5,199.4,327.1z"/>
</g>
</svg>
