<?xml version="1.0" encoding="utf-8"?>
<!-- Generator: Adobe Illustrator 21.1.0, SVG Export Plug-In . SVG Version: 6.00 Build 0)  -->
<svg version="1.1" id="Layer_1" xmlns="http://www.w3.org/2000/svg" xmlns:xlink="http://www.w3.org/1999/xlink" x="0px" y="0px"
	 viewBox="0 0 512 512" style="enable-background:new 0 0 512 512;" xml:space="preserve">
<style type="text/css">
	.st0{fill:#EDEDED;}
	.st1{fill:#D4D4D4;}
	.st2{fill:#FF6262;}
	.st3{fill:#FF314F;}
	.st4{fill:#FFFFFF;}
	.st5{fill:#D0D1D3;}
</style>
<circle class="st0" cx="256" cy="256" r="256"/>
<path class="st1" d="M297.9,508.6c113.4-18.7,201.6-111.8,212.9-227.5L401.5,171.8L316.3,237l-8.2-8.2l-11,2.8l-67-67l-15.4,24.5
	l53.2,51.3l-188.7,50L297.9,508.6z"/>
<path class="st2" d="M91.4,224.5c0-45.5,36.9-82.3,82.3-82.3s82.3,36.9,82.3,82.3c0-45.5,36.9-82.3,82.3-82.3s82.3,36.9,82.3,82.3
	c0,104.3-164.6,191.6-164.6,191.6S91.4,323.8,91.4,224.5z"/>
<path class="st3" d="M420.6,224.5c0-45.5-36.9-82.3-82.3-82.3c-45.5,0-82.3,36.8-82.3,82.3v191.6C256,416.1,420.6,328.8,420.6,224.5
	z"/>
<path class="st4" d="M256,350c-3.3,0-6.2-1.8-7.7-4.8l-49.2-98.4l-20.7,41.5c-1.5,2.9-4.4,4.8-7.7,4.8H85.3c-4.8,0-8.6-3.9-8.6-8.6
	s3.9-8.6,8.6-8.6h80l26.1-52.1c1.5-2.9,4.4-4.8,7.7-4.8s6.2,1.8,7.7,4.8l48.5,97.1l28.9-68.1c1.2-2.9,3.9-4.8,7-5.2
	c3.1-0.4,6.1,1,7.9,3.5l18.1,24.9h109.4c4.8,0,8.6,3.9,8.6,8.6s-3.9,8.6-8.6,8.6H312.9c-2.8,0-5.3-1.3-7-3.6l-11.7-16.1l-30.3,71.3
	c-1.3,3.1-4.3,5.1-7.7,5.2C256.2,350,256.1,350,256,350z"/>
<path class="st5" d="M426.7,275.8H317.3l-18.1-24.9c-1.8-2.5-4.9-3.9-7.9-3.5c-3.1,0.4-5.7,2.3-7,5.2L256,319.3V350
	c0.1,0,0.2,0,0.3,0c3.4-0.1,6.4-2.2,7.7-5.2l30.3-71.3l11.7,16.1c1.6,2.2,4.2,3.6,7,3.6h113.8c4.8,0,8.6-3.9,8.6-8.6
	S431.4,275.8,426.7,275.8z"/>
</svg>
