<?xml version="1.0" encoding="utf-8"?>
<!-- Generator: Adobe Illustrator 21.1.0, SVG Export Plug-In . SVG Version: 6.00 Build 0)  -->
<svg version="1.1" id="Layer_1" xmlns="http://www.w3.org/2000/svg" xmlns:xlink="http://www.w3.org/1999/xlink" x="0px" y="0px"
	 viewBox="0 0 512 512" style="enable-background:new 0 0 512 512;" xml:space="preserve">
<style type="text/css">
	.st0{fill:#EDEDED;}
	.st1{fill:#D4D4D4;}
	.st2{fill:#273B7A;}
	.st3{fill:#121149;}
	.st4{fill:#71E2EF;}
	.st5{fill:#38C6D9;}
	.st6{fill:#386895;}
</style>
<circle class="st0" cx="256" cy="256" r="256"/>
<path class="st1" d="M510.6,282.7L377.3,149.4L278,315l-48.6-49.4l-94.1,126.1L255.6,512c0.1,0,0.3,0,0.4,0
	C388.4,512,497.3,411.5,510.6,282.7z"/>
<path class="st2" d="M151.9,398.2h208.3c13.4,0,24.3-10.9,24.3-24.3V166.5c0-13.4-10.9-24.3-24.3-24.3H151.9
	c-13.4,0-24.3,10.9-24.3,24.3v207.4C127.6,387.3,138.4,398.2,151.9,398.2z"/>
<path class="st3" d="M360.1,142.2H255.4v256h104.7c13.4,0,24.3-10.9,24.3-24.3V166.5C384.4,153.1,373.6,142.2,360.1,142.2z"/>
<path class="st4" d="M304.1,224.7c-31.4-9.4-64.9-9.4-96.3,0c-5,1.5-10.2-1.2-12-6.1c-4.2-11.7-8.4-23.4-12.6-35.1
	c-1.9-5.3,1-11.1,6.4-12.7c43.2-13.3,89.4-13.3,132.7,0c5.4,1.7,8.3,7.4,6.4,12.7c-4.2,11.7-8.4,23.4-12.6,35.1
	C314.4,223.5,309.1,226.2,304.1,224.7z"/>
<path class="st5" d="M322.3,170.7c-21.8-6.7-44.3-10.1-66.9-10v56.9c16.4-0.1,32.8,2.3,48.7,7c5,1.5,10.2-1.2,12-6.1
	c4.2-11.7,8.4-23.4,12.6-35.1C330.7,178.2,327.7,172.4,322.3,170.7z"/>
<path class="st6" d="M232.2,369.8h-66.1c-5.3,0-9.6-4.3-9.6-9.6v-94.5c0-5.3,4.3-9.6,9.6-9.6h66.1c5.3,0,9.6,4.3,9.6,9.6v94.5
	C241.8,365.5,237.5,369.8,232.2,369.8z"/>
<path class="st2" d="M345.9,369.8h-66.1c-5.3,0-9.6-4.3-9.6-9.6v-94.5c0-5.3,4.3-9.6,9.6-9.6h66.1c5.3,0,9.6,4.3,9.6,9.6v94.5
	C355.6,365.5,351.2,369.8,345.9,369.8z"/>
<path class="st3" d="M229.6,219.7l-19.9-39.9c-0.6-1.3-2.2-1.8-3.5-1.2c-1.3,0.6-1.8,2.2-1.2,3.5l19.3,38.5
	C226,220.3,227.8,220,229.6,219.7z"/>
</svg>
