<?xml version="1.0" encoding="utf-8"?>
<!-- Generator: Adobe Illustrator 21.1.0, SVG Export Plug-In . SVG Version: 6.00 Build 0)  -->
<svg version="1.1" id="Layer_1" xmlns="http://www.w3.org/2000/svg" xmlns:xlink="http://www.w3.org/1999/xlink" x="0px" y="0px"
	 viewBox="0 0 512 512" style="enable-background:new 0 0 512 512;" xml:space="preserve">
<style type="text/css">
	.st0{fill:#EDEDED;}
	.st1{fill:#D4D4D4;}
	.st2{fill:#273B7A;}
	.st3{fill:#121149;}
	.st4{fill:#FFC61B;}
	.st5{fill:#EAA22F;}
	.st6{fill:#FEE187;}
</style>
<circle class="st0" cx="256" cy="256" r="256"/>
<path class="st1" d="M295.4,509c98.2-15.2,177.9-86.1,205.9-179.5L308.9,137.1l-61.8,218.6l8.4,8.4l-77.2,27.7L295.4,509z"/>
<path class="st2" d="M312.9,178.9H199.1V146c0-6.6,5.4-12,12-12h89.8c6.6,0,12,5.4,12,12L312.9,178.9L312.9,178.9z"/>
<path class="st3" d="M312.9,146c0-6.6-5.4-12-12-12h-45.5v44.8h57.5V146z"/>
<path class="st4" d="M194.5,398.2h123c13.2,0,23.8-10.7,23.8-23.8V194.5c0-13.2-10.7-23.8-23.8-23.8h-123
	c-13.2,0-23.8,10.7-23.8,23.8v179.9C170.7,387.5,181.3,398.2,194.5,398.2z"/>
<path class="st5" d="M317.5,170.7h-62.1v227.6h62.1c13.2,0,23.8-10.7,23.8-23.8V194.5C341.3,181.3,330.7,170.7,317.5,170.7z"/>
<rect x="170.7" y="227.6" class="st6" width="170.7" height="113.8"/>
<rect x="255.4" y="227.6" class="st4" width="85.9" height="113.8"/>
<path class="st2" d="M251.7,325c-0.9,0-1.8-0.2-2.7-0.6c-3-1.5-4.2-5.1-2.7-8.1l12.9-25.7h-16.1c-2.1,0-4-1.1-5.1-2.9
	c-1.1-1.8-1.2-4-0.3-5.9l17.2-34.5c1.5-3,5.1-4.2,8.1-2.7c3,1.5,4.2,5.1,2.7,8.1l-12.9,25.7h16.1c2.1,0,4,1.1,5.1,2.9
	c1.1,1.8,1.2,4,0.3,5.9l-17.2,34.5C256,323.7,253.9,325,251.7,325z"/>
<g>
	<path class="st3" d="M265.7,252.7c1.5-3,0.3-6.6-2.7-8.1c-2.7-1.3-5.9-0.5-7.6,1.9v26.8L265.7,252.7z"/>
	<path class="st3" d="M274.1,281.3c-1.1-1.8-3-2.9-5.1-2.9h-13.5v12.1h3.7l-3.7,7.5v25.7c0.7-0.5,1.3-1.2,1.7-2l17.2-34.5
		C275.3,285.3,275.2,283,274.1,281.3z"/>
</g>
</svg>
