<?xml version="1.0" encoding="utf-8"?>
<!-- Generator: Adobe Illustrator 21.1.0, SVG Export Plug-In . SVG Version: 6.00 Build 0)  -->
<svg version="1.1" id="Layer_1" xmlns="http://www.w3.org/2000/svg" xmlns:xlink="http://www.w3.org/1999/xlink" x="0px" y="0px"
	 viewBox="0 0 512 512" style="enable-background:new 0 0 512 512;" xml:space="preserve">
<style type="text/css">
	.st0{fill:#EDEDED;}
	.st1{fill:#D4D4D4;}
	.st2{fill:#808183;}
	.st3{fill:#59595B;}
	.st4{fill:#71E2EF;}
	.st5{fill:#38C6D9;}
	.st6{fill:#3A3737;}
	.st7{fill:#272525;}
	.st8{fill:#C92F00;}
	.st9{fill:#930000;}
</style>
<circle class="st0" cx="256" cy="256" r="256"/>
<path class="st1" d="M310.8,506.1C412.1,484,491,401.9,508.4,298.9L287.9,78.4l-42.5,230.4l-44-12.3l-15.2,33.1l54.5,54.5l-0.2,1.1
	l2.2,2.2l-17.3,33.2L310.8,506.1z"/>
<g>
	<path class="st2" d="M314.2,167.6H197.8l19.8-79.3c2-8.1,9.3-13.8,17.7-13.8h41.3c8.4,0,15.7,5.7,17.7,13.8L314.2,167.6z"/>
	<path class="st2" d="M197.8,330.6h116.4l-19.8,79.3c-2,8.1-9.3,13.8-17.7,13.8h-41.3c-8.4,0-15.7-5.7-17.7-13.8L197.8,330.6z"/>
</g>
<g>
	<path class="st3" d="M294.4,88.4c-2-8.1-9.3-13.8-17.7-13.8H256v93.1h58.2L294.4,88.4z"/>
	<path class="st3" d="M256,330.6v93.1h20.6c8.4,0,15.7-5.7,17.7-13.8l19.8-79.3H256z"/>
</g>
<path class="st4" d="M307.7,330.6H204.3c-10,0-18.1-8.1-18.1-18.1V185.8c0-10,8.1-18.1,18.1-18.1h103.4c10,0,18.1,8.1,18.1,18.1
	v126.7C325.8,322.5,317.7,330.6,307.7,330.6z"/>
<path class="st5" d="M307.7,167.6H256v162.9h51.7c10,0,18.1-8.1,18.1-18.1V185.8C325.8,175.8,317.7,167.6,307.7,167.6z"/>
<path class="st6" d="M307.7,337.5H204.3c-13.8,0-25-11.2-25-25V185.8c0-13.8,11.2-25,25-25h103.4c13.8,0,25,11.2,25,25v126.7
	C332.7,326.2,321.5,337.5,307.7,337.5z M204.3,174.5c-6.2,0-11.2,5-11.2,11.2v126.7c0,6.2,5,11.2,11.2,11.2h103.4
	c6.2,0,11.2-5,11.2-11.2V185.8c0-6.2-5-11.2-11.2-11.2L204.3,174.5L204.3,174.5z"/>
<path class="st7" d="M307.7,160.8H256v13.8h51.7c6.2,0,11.2,5,11.2,11.2v126.7c0,6.2-5,11.2-11.2,11.2H256v13.8h51.7
	c13.8,0,25-11.2,25-25V185.8C332.7,172,321.5,160.8,307.7,160.8z"/>
<path class="st8" d="M209.5,242.3c0-12.9,10.4-23.3,23.3-23.3s23.3,10.4,23.3,23.3c0-12.9,10.4-23.3,23.3-23.3
	c12.9,0,23.3,10.4,23.3,23.3c0,29.5-46.5,54.2-46.5,54.2S209.5,270.3,209.5,242.3z"/>
<path class="st9" d="M302.5,242.3c0-12.9-10.4-23.3-23.3-23.3c-12.9,0-23.3,10.4-23.3,23.3v54.2C256,296.4,302.5,271.8,302.5,242.3z
	"/>
</svg>
