<svg id="Layer_1" data-name="Layer 1" xmlns="http://www.w3.org/2000/svg" viewBox="0 0 512 512"><defs><style>.cls-1{fill:#ededed;}.cls-2{fill:#d4d4d4;}.cls-3{fill:#b54324;}.cls-4{fill:#ff7f4f;}.cls-5{fill:#d35933;}.cls-6{fill:#993119;}.cls-7{fill:#930000;}.cls-8{fill:#700;}.cls-9{fill:#59595b;}</style></defs><title>pesoTalla</title><circle class="cls-1" cx="256" cy="256" r="256"/><path class="cls-2" d="M331.902,500.558a256.417,256.417,0,0,0,174.88-192.886l-80.115-80.117-41.086,24.997-17.239-1.436-46.821,8.737-67.636-67.637-49.378,8.397-.796,53.663L127.418,296.07Z"/><rect class="cls-3" x="170.66701" y="199.11099" width="85.33299" height="56.88901"/><path class="cls-4" d="M113.778,199.111v61.918a51.85975,51.85975,0,0,0,51.862,51.86H426.667V227.556H185.32Z"/><polygon class="cls-5" points="426.667 227.556 185.32 227.556 184.172 227.099 184.172 312.889 426.667 312.889 426.667 227.556"/><ellipse class="cls-3" cx="184.88901" cy="199.11099" rx="71.111" ry="28.444"/><path class="cls-6" d="M184.889,170.667c-.241,0-.478.007-.717.007v56.875c.24,0,.478.007.717.007,39.274,0,71.111-12.734,71.111-28.444S224.163,170.667,184.889,170.667Z"/><ellipse class="cls-7" cx="184.88901" cy="199.11099" rx="17.239" ry="6.896"/><path class="cls-8" d="M184.889,192.215c-.243,0-.478.01-.717.014v13.762c.24.003.476.014.717.014,9.521,0,17.239-3.088,17.239-6.896C202.128,195.303,194.41,192.215,184.889,192.215Z"/><rect class="cls-7" x="207.3" y="284.444" width="12.067" height="28.444"/><rect class="cls-7" x="284.444" y="284.444" width="12.06699" height="28.444"/><rect class="cls-7" x="369.77802" y="284.444" width="12.06699" height="28.444"/><rect class="cls-7" x="243.933" y="256" width="12.067" height="56.88901"/><rect class="cls-7" x="170.66701" y="256" width="12.067" height="56.88901"/><rect class="cls-9" x="414.599" y="227.556" width="12.06699" height="85.33301"/><rect class="cls-7" x="329.26599" y="256" width="12.06699" height="56.88901"/></svg>